<?xml version="1.0" encoding="UTF-8"?>
<svg version="1.1" viewBox="0 0 2048 864" width="1280" height="1280" xmlns="http://www.w3.org/2000/svg">
<path transform="translate(0)" d="m0 0h2048v864h-2048z" fill="#FCFCFC"/>
<path transform="translate(1601,12)" d="m0 0h24l20 1 38 5 26 5 16 4 5 2 16 4 30 11 26 12 13 7 16 9 11 7 13 8v2l5 2 14 11 11 9 14 12 28 28 9 11 10 12 12 16 13 19 12 20 8 16 7 15 5 11 6 16 9 28 4 16 6 27 3 19 1 9 1 21 1 2v56l-1 7-16 6-36 13-14 4-6 3-7 2-14 5-7-1-76-76v-2h-2l-1-2-4-34-5-24-3-8-8-22-8-17-7-12-7-11-11-14-12-14-7-8-6-4-9-9-5-3-7-6-7-4-4-2-1-2-5-3-5-2-4-3-10-4-2-1v-2l-7-1-25-10-15-3-1-1-13-2-2-1-25-2h-30l-19 1-8 2-11 2-9 3-23 8-20 9-15 8-9 6h-2v2l-10 6-1-2-1-14-1-1-1-19-1-2-4-43-1-20-5-2-17-8-17-9-3-2v-2l-10-3-6-4-16-8-11-6-7-4v-2l3-2h3v-2l6-4h3v-2l19-12 25-14 27-12h5v-2l6-2h5v-2l9-3 9-2 8-3 22-6h9v-2l14-2 7-2 35-4z" fill="#FDB52B"/>
<path transform="translate(423,13)" d="m0 0h31l24 2 32 5 30 7 29 9 25 10 26 12 27 15 22 14 9 6v2l-56 30-24 13-10 6-3 36-4 52-1 11-5-2-21-13-18-10-15-7-10-4-7-3-26-6-22-3-15-1h-21l-29 3-23 5-24 8-24 11-20 12-17 13-13 11-17 17-11 14-10 14-10 17-10 21-10 30-5 25-3 29-9 10-69 69-4 3-7-1-49-18-40-15-2-1-1-16v-46l2-24 4-26 8-33 3-8 6-20 6-15 6-16 7-15 8-16 9-17 10-16 8-12 16-22h2l2-4 9-10 8-10 20-20 8-7 14-12 14-11 15-11 17-11 25-14 25-12 29-11 29-9 30-7 26-4 21-2z" fill="#B9BABA"/>
<path transform="translate(1853,444)" d="m0 0 5 2 12 11 61 61 10-1 11-5 21-8 28-10 22-7 9-1-3 22-8 34-12 36-10 24-11 23-12 21-20 30-14 19-12 14-7 8-9 10-15 15-8 7-17 14-19 14-19 12-17 10-23 12-23 10-28 10-28 8-29 6-43 5-13 1h-34l-34-3-31-5-29-7-36-12-27-11-21-10-11-7 1-19 5-51 3-32 9-6 23-12 22-12 29-15 6-4 5 1 24 10 22 7 29 6 9 1h29l22-2 25-5 23-7 21-9 20-10 21-14 11-9 10-9 8-7 12-13 13-17 11-18 10-19 10-26 6-21 4-25z" fill="#FDD07F"/>
<path transform="translate(193,443)" d="m0 0h1l3 28 5 23 2 7 4 13 5 12 8 17 10 17 12 17 9 11 11 12 10 10 11 9 12 9 18 11 17 9 15 6 11 4 18 5 17 3 9 2 8 1h44l16-2 27-6 21-7 13-5 9-4 6 1 11 6 23 12 16 8 12 7 12 6 13 7 1 2 1 19 2 15 2 33 2 16v18l-8 5-23 11-32 13-30 10-32 8-29 5-21 3-11 1h-43l-25-3-18-2-24-5-26-6-33-11-24-10-21-10-11-6-21-13-15-10-18-13-14-12-10-9-8-7-22-22-9-11-11-13-13-18-13-20-10-17-13-25-7-16-7-17-10-32-4-13-3-13-4-24-1-7 7 1 7 3 18 6 10 4 16 6 10 3 7 3 15 5 7 3 6-1 2-5 69-69z" fill="#8D8E90"/>
<path transform="translate(1358,101)" d="m0 0 5 1 18 10 28 15 34 18 8 3 2 12 2 37 1 11 1 1 2 21 1 23-9 7-73 48-43 29-20 13-44 29-43 29-16 10-18 12-44 29-14 10-61 40-12 8h-2l-7-84-2-20-5-2-9-4-31-17-14-7-23-13-8-5 5-5 12-8 22-15 15-10 25-16 43-29 16-10 43-29 82-54 43-29 14-9 33-22 35-23z" fill="#D69311"/>
<path transform="translate(947,373)" d="m0 0 5 2 23 13 32 16 19 10 15 7 1 7 1 17 2 15 2 33 2 25v8l-9 7-19 12-17 11-38 25-12 8-41 27-18 12-44 29-42 28-20 13-15 10-44 29-48 32-25 16-4 1-2-18-2-24-1-6-1-16-2-18-1-17-1-3-27-14-22-12-19-10-22-12 4-4 11-7 43-29 16-10 43-29 25-16 43-29 44-29 78-52 13-9 29-19 27-18 13-9z" fill="#6B6C70"/>
<path transform="translate(1199,441)" d="m0 0 5 1 21 13 27 18 43 29 44 29 18 12 44 29 15 10 29 19 20 13 24 16 9 7-3 2-23 13-21 12-29 15-12 7-2 4-8 81-2 15-2 3-19-12-48-32-44-29-42-28-29-19-44-29-43-29-32-21-44-29-12-8-2-2 1-4 14-10 18-11 43-29 32-21 45-30z" fill="#FEDCA7"/>
<path transform="translate(689,103)" d="m0 0 5 1 44 29 43 29 44 29 33 22 19 12 24 16 88 58 19 12 5 4-13 10-24 16-15 9-93 62-19 12-6-2-27-18-43-29-41-27-44-29-21-14-44-29-17-12-14-10-1-3 3-43 5-55 5-5 26-14 27-14 22-12z" fill="#D0D1D1"/>
<path transform="translate(1630,370)" d="m0 0h43l12 1 10 3 9 6 9 12 4 11 3 12v20l-5 18-5 9-7 8-10 6-9 3-8 1h-45l-3-1v-108z" fill="#6D6E71"/>
<path transform="translate(404,370)" d="m0 0h17l13 4 10 7 7 8 5 8-1 5-14 4-5-1-4-5-4-6-9-4-10-1-10 3-8 7-4 7-2 8v24l3 10 6 9 5 4 6 2h11l9-4 7-8 4-9 10 1 9 3v8l-7 12-8 8-16 8-6 1h-12l-13-4-12-7-9-10-5-8-4-13-1-4v-20l4-15 7-14 6-7 10-7 10-3z" fill="#6C6D71"/>
<path transform="translate(1556,369)" d="m0 0h20l12 4 8 6 8 9 5 9v4l-16 4-5-1-5-9-7-5-7-2h-10l-9 4-5 5-5 8-2 7v25l3 10 7 10 6 4 4 1h9l10-4 5-4 5-9 2-5 11 2 8 2v9l-6 10-8 9-13 7-6 2h-20l-12-4-11-8-9-11-6-13-2-9v-20l4-15 6-12 9-10 11-7z" fill="#6C6D71"/>
<path transform="translate(1651,390)" d="m0 0h26l10 2 6 7 4 11 1 9v19l-3 12-5 7-7 3-6 1h-25l-1-1z" fill="#FBFBFB"/>
<path transform="translate(1295,229)" d="m0 0 10 1 3 4-1 1-13 2-5 3-1 3 12 1v-2l9-1 6 2 4 7v6l-4 5-10 5-5 1h-9l4 4v3l-3 1-10-2v-2l-5-1-4-2-4-6-2-1 3 9 1 1v12l1 4-10 8h-2v2l-15 9-6 1-2 4-11 8-11 6-9 8-6 3h-2v2l-7 4h-5l-6-13-3-5-5-5-2-3 1-5 7-6h2v-2l13-7h2v3h-2l-2 5-5 4-6 1-1 9h8l5-5h6l4 2-2 4-2 1h-10l2 9 3 3 8-3 5-3 9-3-3-7-6-8v-4l-3-1-5-8 1-4 5 1 8 11 5 7v3h7l7-5 8-2-11-16-5-10 1-5 5-4 9-6 3-1h7l-2 5-7 5-6 2-1 7 11-2 5-4 4 1 2 2-1 4-10 2-3 3 1 5 3 3h7v-2h3v-2l5-3 5-2-1-4-1-8-4-19 1-5 1-2 5 1 10 6 4 3v2l12 4 1-6 12-1 9-5-4-4h-8l-11 3-8-6-1-7 3-5 5-4z" fill="#F9F5ED"/>
<path transform="translate(1204,286)" d="m0 0 10 5 7 1 5-1 6 5 4 4 3 4v2l-10 4-5 4-7-1-5-9-4-5-5-7h-4l1 4 4 7 2 1 3 7 6 8v4l-5 3-7 3-6 3-5 1-3-4-1-9 10-1 4-4-10-1-5 5-8-1v-7l1-2 9-4 4-6h2v-3l-13 7h-2v2l-9 7 1 5 3 4v2l3 1 5 9 4 10-1 3-4 2-7-1-6-3h-12l3 9 3 3v4l-6 1-4-4-5-10-7-10v-6l3-5 6-4 1-5 8-3 8-4 5-7 11-7 8-5 6-4z" fill="#E69819"/>
<path transform="translate(474,372)" d="m0 0h22l1 1v107h-22l-1-27z" fill="#6C6D71"/>
<path transform="translate(730,217)" d="m0 0 8 1 9 6 7 7 1 6 2-3 4 1 3 5-8 10-6 11 1 4 8 6 2 1h6l18-13 5-2 6 1 1 4-3 28-2 2h2l8-13 8-10 5 1 2 3 1 26 7-11 3-7 4 1 2 5-8 14-8 9-6 1-2-2-3-23-6 12-1 1-7-1v-3l-5-1-3-5-1-10-4-2-10 1-3 1-12-5-13-9-1-5 10-15v-2l-3 1-17-1-8-4-6 9-5-1 8-17 9-12z" fill="#FDFDFD"/>
<path transform="translate(1814,683)" d="m0 0 6 1 6 3v5h6l12 6 3 2v3l-2 1h-15l-3 5-2 12-6 2-5-1-6-5-6-1-2-7-4-5h-3v5l7 9 1 7 4 2v6l-5 2-2-1-1 3-4 2-1 2-3 1-2 3-8 1-5-2-4-5-3-5v-2l-6 3-6-1 5-7h3l-1-10 10-7h5l-2 4-5 6-1 4 5-1 2-2 10-3 3 3-1-4-2-6h-5l2-5 8-7 5-2 7 1 3 2v3l2 1-4 1h-3v2l10 2 4 3 1-1v-11l1-4-4-2-2-8z" fill="#FEDCA5"/>
<path transform="translate(1630,370)" d="m0 0h43l12 1 3 2h-10l14 6 3 3 1 6-1 1-12 2-32-1v68h-1l-1-60-5 10-1 1h-5l-2 9h-3l-3-6-1 67h-1v-108z" fill="#8E8F91"/>
<path transform="translate(1747,722)" d="m0 0h8l4 2-1 3-6 1h-6l1 10 4 1 1 7v11l-4 1-3-5-2-7-4 11-4 6-5 4-3 1h-8l-7-4-4-5-3-6v-8l6-9 9-3h10l8 7 1-1-1-11 4-3h3v-2z" fill="#FCFCFC"/>
<path transform="translate(877,506)" d="m0 0h5l13 10 11 8 4 5h-8l-8-3-5 4-3 3 1 10-6 5-10 1-7-3-13-1 1-6 6-4v-6l-5-1-10 6 2 4 6 8 7 13-1 5-4-1-7-9-9-14-3-3 1-4 14-9 6-3 6 1 5 6 1 9 5 5 10 2v-5l-4-2-4-25 1-4z" fill="#F4F5F5"/>
<path transform="translate(231,667)" d="m0 0 4 2 9 8 11 9 5 3 5 5 3 1v2l5 1 11 8 16 8 8 5-1 2-6 2-4 5-6 12-3 4-6-1 1-4 5-8 3-8 2-2 1-4-5-1-9-4-8-8-10-5-10-7-3-1 3 7 1 3h2l5 5 2 1v2l-10-1-7-3h-4l1 6 6 5 2 4v3l-5-1-10-8-3-3 1-6 7-10 5-8-2-4-5-1-9 10-5 6h-6l1-5 8-8 3-2 2-7-1-2z" fill="#F6F6F6"/>
<path transform="translate(1295,229)" d="m0 0 10 1 3 4-1 1-13 2-5 3-1 3 12 1v-2l9-1 6 2 4 7v6l-4 5-10 5-5 1h-9l4 4v3l-3 1-10-2v-2l-5-1-4-2-4-6-2-1 3 9 1 1v12l1 4-10 8h-2v2l-8 5-2-1 9-8 4-2 1-5-1-2-1-8-4-19 1-5 1-2 5 1 10 6 4 3v2l12 4 1-6 12-1 9-5-4-4h-8l-11 3-8-6-1-7 3-5 5-4z" fill="#F5EFE5"/>
<path transform="translate(1764,128)" d="m0 0 9 1 12 6 2 4-1 1-9-1-6-3h-2v4l7 2 2 3-1 6-2 2-4-1-10-4 1 7 11 6 2 2h4v-3h2l2-7h2l3-10 2-3 4-1 10 5 7 7v6h-2l-2 4h-2l-1 4-2 1h-7l-6-2-9 6-3-1v-2l-11-2-13-5-2-2 1-7 2-4h2l3-9z" fill="#FDFDFD"/>
<path transform="translate(1334,620)" d="m0 0h10l8 5 5 6 2 13h-2l-1 5-6 7-5 2h-10l-8-4-6-7-1-8 6-13 5-5z" fill="#FDFDFD"/>
<path transform="translate(738,599)" d="m0 0 5 1 13 15 3 7-1 6-10 8-7 3h-8l-6-4-6-8-1-3v-11l4-6 10-6z" fill="#F5F6F6"/>
<path transform="translate(1239,553)" d="m0 0 7 1 6 4 3 4v17l-7 11-4 2h-10l-9-5-5-6v-10l3-9 7-6z" fill="#FDFDFD"/>
<path transform="translate(1836,174)" d="m0 0h10l7 5 6 7v9l-3 7-5 6-8 4-7-1-5-3v-2h-3l-5-7v-8l5-10 5-5h3z" fill="#FCF9F6"/>
<path transform="translate(944,592)" d="m0 0 3 1-11 8-23 15-18 12-44 29-42 28-20 13-15 10-44 29-48 32-25 16-4 1 2-5 5-3 14-8 11-8 9-6h3v-2l11-7 11-8 14-9 10-7 11-7 23-15 11-7 8-5 15-10 7-4 10-7 11-7 17-11 15-10 5-2v-2l5-1v-2l16-10 10-7 7-4 14-9 12-8z" fill="#5B5E64"/>
<path transform="translate(247,158)" d="m0 0h7l6 4 4 5 3 8-1 7-8 7-9 5h-7l-11-11-1-2v-12l7-7 6-3z" fill="#FDFDFD"/>
<path transform="translate(1358,101)" d="m0 0 5 1 18 10 43 23 3 5-6-2-14-7-22-12-7-3-11-1h-7l-14 7-5 4-5 3-6 1-17 9-11 5h-2l2-6 43-29z" fill="#E49616"/>
<path transform="translate(1367,637)" d="m0 0 6 1 8 4 5 5 5 6-1 7-1 2h-2v2h-2l-1 3-5 2-3 5 2 4-1 4-5 1-2-4 1-8v-6l-4-2-1-3-7 2-2 4-7 3-2-5 13-19z" fill="#FDFDFD"/>
<path transform="translate(278,140)" d="m0 0h7l6 4 5 9v10l-5 5-13 8-4-1-6-8-7-14v-6l12-6z" fill="#FCFCFC"/>
<path transform="translate(1158,319)" d="m0 0h8l6 9 3 9 4 4 6 2-1 4-7 1-8-4h-12l3 9 3 3v4l-6 1-4-4-5-10-7-10v-6l3-5z" fill="#F8F2E7"/>
<path transform="translate(1730,116)" d="m0 0h9v2l6 2 4 4v2l3 1 1 6-3 10-6 8-9 2-7-2v-2l-6-2-2-4 1-6 2-10h2l2-7z" fill="#FCFBF8"/>
<path transform="translate(1199,526)" d="m0 0 5 1 2 2-1 5-4 9v8l-1 4 13-6 6-7 6-1 2 1v6l-3 3-4 8-5 7-2 5-2 2-5-1-1-4 4-5 3-6-10 7-3 2-6-1-2-2 1-5 2-4v-6l-3 1-2 5-4 3-5-1 1-4 10-14 7-11z" fill="#FDFDFD"/>
<path transform="translate(1854,645)" d="m0 0 4 2-6 7-5 7h9v3h4l1 8 6 1 3-5 4-2 4 1-4 6-3 3-1 3h-2v2l-7 1-11-10-7-4-2 4 2 6 5 3 5 8v5l-5 1-14-15-9-5 2-5 5-5 7-5 9-11z" fill="#FFDDA8"/>
<path transform="translate(1772,710)" d="m0 0h5l-2 4-5 6-1 4 5-1 2-2 10-3 3 3 2-1 4 7 2 1 1 4h3v-2h2l-1-4 3 1v6l-5 2-2-1-1 3-4 2-1 2-3 1-2 3-8 1-5-2-4-5-3-5v-2l-6 3-6-1 5-7h3l-1-10z" fill="#FED081"/>
<path transform="translate(1250,257)" d="m0 0 6 2 2 1 1 6h2l3 14v5l1 3-2 2-9 3v2h-3v2l-7 1-1-3-3-1-1-5 4-4 10-2-1-4-4-1-5 4-9 2-2-1v-7l8-4 4-3h2l2-5-10 2-6 2 2-5 3-4h7z" fill="#E59717"/>
<path transform="translate(323,120)" d="m0 0 4 1 3 5 4 17 4 1 3-1h8v3l-15 5-4-1-4-8-3-8-2-9-7 4-12 3 6 16 3 4 7-2 5-4 2 2-1 5-12 6-6 1-5-6-5-12-1-3v-9l12-5 13-3z" fill="#FBFBFB"/>
<path transform="translate(1267,570)" d="m0 0 4 2 2 9v15l1 5 6-9 5-9 4 2 2 2-1 5-13 18-4 4h-5l-3-4 1-5v-8l-3-9v-2h-2l-1 6-4 8-4 3-4-1 1-5 7-14 3-2v2h2l1-7 3-5z" fill="#FDFDFD"/>
<path transform="translate(798,557)" d="m0 0 4 2 9 12 8 13 1 3-1 2-8 1-14-5-7-5h-3l12 18-1 5h-4l-12-17-6-10 1-5 10 1 11 4v2l6 2 4 2-10-16-1-8z" fill="#F7F7F7"/>
<path transform="translate(1324,208)" d="m0 0h7l-1 5-10 6-1 1h-5l3 6 5 3 2-4 6-3 5-1 3 1v4l-5 3-4 3-5 1 3 6v2l7 1v-2l11-7h3l-1 7-15 9-7 1-8-10-5-9-4-5v-6l10-8z" fill="#F4EFE7"/>
<path transform="translate(765,580)" d="m0 0h7v4l-12 6-3 3 1 4 2 2 10-5 1-5 9 2 1 5v1l-7 2-6 4h-5l5 10 3 1 10-7 5-3h5l1 3h-3v2l-10 6h-2v2l-8 5-4-1-7-10-9-13-2-5 10-8z" fill="#F5F5F5"/>
<path transform="translate(825,540)" d="m0 0h7l-3 5-5 3-2 2-6 2 3 9 4-2 5-4 7-1v-2h2v-2h2l2 7-5 3-9 3-4 1 3 9 8-1 9-6 6-1v3l-8 7-11 6-5 2-10-14-9-14 2-4 8-5z" fill="#F5F5F5"/>
<path transform="translate(775,576)" d="m0 0h2l6 10 11 16v2l-10 2-13 9-4-2-4-7v-3l7-2 6-4 4-1v-4l-9-3v5l-8 4h-2l-1 2-4-4 1-4 8-6 9-3v-2h2z" fill="#5B5E63"/>
<path transform="translate(1294,590)" d="m0 0 5 2 23 13 10 8v3l-14-2-7 11-5 9-2 2h-4l1-6 7-12 3-6v-7l-7-7-4 2-8 13-6 9-4 1-2-4 6-11 7-14z" fill="#FDFDFD"/>
<path transform="translate(877,506)" d="m0 0h5l13 10 11 8 4 5h-8l-8-3-5 4-3 3 1 10-5 3-1-2 1-5-4-2-4-25 1-4z" fill="#F3F3F3"/>
<path transform="translate(935,468)" d="m0 0h5v4l-14 8-1 4h5 3l9-5 5 1 1 4-11 7h-5l6 10 5-1 12-9h3l1 3-4 5-14 10-6-1-5-6-10-15-3-5v-3l11-7z" fill="#F3F3F3"/>
<path transform="translate(1193,296)" d="m0 0h2v3h-2l-2 5-5 4-6 1-1 9h8l5-5h6l4 2-2 4-2 1h-10l2 9 3 3 8-3 4-2 3 1-7 6-1 2h-2v2l-7 4h-5l-6-13-3-5-5-5-2-3 1-5 7-6h2v-2z" fill="#FAF5EE"/>
<path transform="translate(1195,296)" d="m0 0 4 5 1 1v6l4 4 6 2 2 5h3v4l-5 3-7 3-6 3-5 1-3-4-1-9 10-1 4-4-10-1-5 5-8-1v-7l1-2 9-4 4-6h2z" fill="#FDB52D"/>
<path transform="translate(87,667)" d="m0 0 3 1 9 12 10 13 2 4 3 1 6 8 4 2 10 11 3 6 8 8 8 7 11 10 10 8 12 9 10 7 23 15 18 10 21 11 24 10 20 7 11 4v1l-7-1-21-7-24-10-21-10-11-6-21-13-15-10-18-13-14-12-10-9-8-7-22-22-9-11-11-13-13-18z" fill="#67696D"/>
<path transform="translate(1793,139)" d="m0 0 7 3 6 4 5 5v6h-2l-2 4h-2l-1 3h-10l-8-4-1 3-9 3v-2l2-1 1-3h2l2-7h2l3-10 2-3z" fill="#FDFBF9"/>
<path transform="translate(1796,697)" d="m0 0 7 1 3 2v3l2 1-4 1h-3v2l10 2 10 8 2 4h-7l-8-4-6-1-2-7-4-5h-3v5l7 9 1 7 2 2v3h-2l1 3-5-1v-4l-3-1-8-14v-2h-5l2-5 8-7z" fill="#FDFDFD"/>
<path transform="translate(1277,247)" d="m0 0h6l7 5 11-3h8l5 6-10 5h-12l-1 6h-5l-7-4-4-4-14-8 1-2h12z" fill="#E69717"/>
<path transform="translate(1716,737)" d="m0 0 9 1 12 4-3 10-5 10-4 2-7-3-6-8-1-2v-8z" fill="#FED082"/>
<path transform="translate(1295,229)" d="m0 0 10 1 3 4-1 1-13 2-5 3-1 3 12 1v-2l9-1 6 2 4 7v6l-4 5-2-1 2-4-4-1 2-1-4-4h-8l-11 3-8-6-1-7 3-5 5-4z" fill="#FAF0DE"/>
<path transform="translate(1239,558)" d="m0 0 5 2 5 6 1 2v6l-6 9-5 3-8-1-1-5-4-1-1-7 6-9z" fill="#FEDCA8"/>
<path transform="translate(249,691)" d="m0 0 4 1 16 10 3 2-3 1-4-1-1 11h2l6 9v4l-9-1-2-3-2-9-3-2v-2h-2v15h-1l-1-9-3 3-1-4-4-2-4-5 1-5 7 1 8 3 6 1v-2l-5-2-2-4h-2l-4-7z" fill="#929395"/>
<path transform="translate(1335,628)" d="m0 0h9l6 4 1 2v7l-6 8-5 3-5-1-5-3-3-3v-8l4-6z" fill="#FFDDA8"/>
<path transform="translate(265,704)" d="m0 0 5 1 10 17v8l-4 5h-10l-6-3v-2h-3l-3-4v-15h2l4 4 3 11 9 2-3-7-3-4v-2h-2z" fill="#F7F7F7"/>
<path transform="translate(733,607)" d="m0 0h8l6 3 1 3-8 5-3 5 9-1 4-3 2 3-1 5-5 4-2 1h-10l-5-5-3-7 1-8z" fill="#6C6D71"/>
<path transform="translate(246,162)" d="m0 0 6 3 8 11 1 5-10 7-5-1-7-6-3-6 1-6 7-6z" fill="#BABBBB"/>
<path transform="translate(1307,221)" d="m0 0h1l2 6 3 4 5 9 6 8v2l-5 5-4-12-10-1h-5v2h-12l-1-2h2l-1-3 6-3 13-2-2-3-10-1-7 3-6 5-2-2 3-5 8-4 10-2 5-2z" fill="#E99D1D"/>
<path transform="translate(1199,291)" d="m0 0 5 1 8 11 5 7v3h7l7-5 15-5 4-1-3 3-5 2h-3l-2 4-11 8-11 6-9 8-6 2 7-7-1-2 9-3-3-7-6-8v-4l-3-1-5-8z" fill="#F2EFEA"/>
<path transform="translate(1866,194)" d="m0 0 4 2 1 2v8l-1 4 7-1 6-2 1 1v6l-2 2-16 3h-2l-1 4-7 4h-6l1-5 7-7h2l2-9 3-11z" fill="#FDFDFD"/>
<path transform="translate(1772,710)" d="m0 0h5l-2 4-5 6v6l3 1 3 7 1 3 6 2 7-6h4v2l-3 1-5 8-7 2-5-2-4-5-3-5v-2l-6 3-6-1 5-7h3l-1-10z" fill="#FDFDFD"/>
<path transform="translate(981,352)" d="m0 0 1 4 1 8 5 5 7 8 2 1 1 5-10-3-18-10-8-5 5-5 11-7z" fill="#E49616"/>
<path transform="translate(944,592)" d="m0 0 3 1-11 8-23 15-18 12-44 29-36 24v-3l5-5 7-4 15-10 20-13 12-8h2v-2l5-1v-2l16-10 10-7 7-4 14-9 12-8z" fill="#5D6065"/>
<path transform="translate(1841,182)" d="m0 0 7 1 4 2v9l-4 6-6 4h-6l-3-3-3-2v-7l7-9z" fill="#FEB52D"/>
<path transform="translate(1734,121)" d="m0 0 7 1 4 5v8l-5 10-1 1h-7l-4-5-1-4 2-10 3-5z" fill="#FEB52B"/>
<path transform="translate(911,484)" d="m0 0h3l-1 4-6 4h-2l4 6 9 14 4 7v2h-5l-6-8-10-14-5-1-2 4 3 3-1 2-6-4-4-2 5-4 12-9z" fill="#F2F3F3"/>
<path transform="translate(1817,156)" d="m0 0 5 1 1 5-6 7-4 7v9l4 4 1 4-5 1-4-3v-2l-5-1-4-3 1-4h2l1-4h2l3-9 4-6 3-5z" fill="#FCF9F5"/>
<path transform="translate(1533,380)" d="m0 0 2 1-3 3-3 7-7 14-3 14v13l2 13 4 8 5 8 2 2 3 5 7 6h-3l-8-6-8-10-6-13-2-9v-20l4-15 6-12z" fill="#62656A"/>
<path transform="translate(2010,491)" d="m0 0 3 1-10 6-16 7-21 7-18 5h-5l4-3 23-9 34-12z" fill="#FFDDA8"/>
<path transform="translate(215,178)" d="m0 0 6 1 8 7 10 13-1 4-1 2-5-2-18-18-1-5z" fill="#FCFCFC"/>
<path transform="translate(1852,661)" d="m0 0h4v3h4l1 8 6 1 3-5 4-2 4 1-4 6-3 3-1 3-6 1-5-2-12-10-2-5z" fill="#FDFDFD"/>
<path transform="translate(781,593)" d="m0 0 5 5v2h-2v2l6 1-4 2-15 10-4-2-4-7v-3l7-2 6-4 4-1z" fill="#6C6D72"/>
<path transform="translate(1755,722)" d="m0 0h5l1 2 2-1v4l-3 1-4 5 5 1 6-2 1 4-10 6-3 4h-2v11h-1l-1-18-5-1v-10l12-2 1-2z" fill="#FED081"/>
<path transform="translate(1814,683)" d="m0 0 6 1 6 3v5l-7 1-3-1v3l4-1 6 4-1 7-2 5 2 5-4 1-1-1v-5h-2l-2-10 1-4-4-2-2-8z" fill="#FDFDFD"/>
<path transform="translate(839,552)" d="m0 0 4 2 3 9 2 1v2l-9 3-5 4-6 1-4-4-1-6 9-3 5-3 3-2z" fill="#737477"/>
<path transform="translate(1059,483)" d="m0 0 3 3 3 10 4 5 8 2-1 3h-2l-2 5-9 6h-2l-2-23z" fill="#E89A1A"/>
<path transform="translate(1834,667)" d="m0 0h1v6l4 2 10 10 2 4 2 1v4l-5 1-14-15-9-5 2-5 2-2z" fill="#FDFDFD"/>
<path transform="translate(385,405)" d="m0 0h1l-1 9v31h-2l-1 2-4-8v-24l4-7z" fill="#5B5E64"/>
<path transform="translate(197,195)" d="m0 0h6l5 7 4 7 7 10-1 3-4-1-8-8-9-11-2-4z" fill="#FDFDFD"/>
<path transform="translate(804,555)" d="m0 0 4 1 10 16 7 9v3l-6 1-14-21-5-6v-2z" fill="#5C5F64"/>
<path transform="translate(474,372)" d="m0 0 2 4 1 1-1 103h-1l-1-27z" fill="#A3A4A5"/>
<path transform="translate(318,125)" d="m0 0h3l4 13-1 5h-2v-3h-2l-2-8-5 1-5 4 1 9 7-1-3 3h-2v2l4 1-5 2-4-8-4-10v-3l12-4z" fill="#ABACAD"/>
<path transform="translate(1754,147)" d="m0 0 1 3-1 7 3 2 9 2 1-2-6-2-3-5 3-2 1 5 11 6 2 2 3 1h-2v2l9-4 1-2 6 2 4 1 8 1-2 2h-7l-6-2-9 6-3-1v-2l-11-2-13-5-2-2 1-7z" fill="#FED99C"/>
<path transform="translate(1836,181)" d="m0 0h11l3 3-9-1-5 2-5 7v7l5 3v2l8-2 4-2-2 4 2 2h2l1-3 5-5 1-4v-7l-1-4 3 3v9l-3 7-5 6-8 4-7-1-2-3 8 1 1-1-6-2h-3l-5-5v-12l5-7z" fill="#EED4A8"/>
<path transform="translate(746,596)" d="m0 0h3l7 11 7 10 3 4v2l-6 2-6-11-9-10-3-5z" fill="#5B5E64"/>
<path transform="translate(1781,706)" d="m0 0 2 1-2 4h5l4 7-1 4-4-3-10 4-4 2-2-1 1-6 7-8-4-1z" fill="#FED182"/>
<path transform="translate(1785,718)" d="m0 0 4 3 2-1 2 5-10 6-7 1-1 2-3-7-2-1 1-2 4-2z" fill="#FEDCA7"/>
<path transform="translate(1751,127)" d="m0 0 2 3-2 11-4 6-5 5-7 1-4-2 10-1v-3l-6 1-7-3-2-3v-7l2-3 1 9 3 4h7l5-10 1-7h1v9l4-2z" fill="#E3D4BB"/>
<path transform="translate(749,619)" d="m0 0 3 3-1 5-5 4-2 1h-10l-5-5 1-3 3-1 13-1z" fill="#5C5F65"/>
<path transform="translate(278,146)" d="m0 0h5l4 5 1 2v10l-6 4-4 1-5-8 1-4-1-5h2l4 10 2 1v-10z" fill="#B7B8B8"/>
<path transform="translate(1156,343)" d="m0 0h13l4 2-1 4-5 8-4 1-1-4-3-1-3-7z" fill="#E69717"/>
<path transform="translate(825,546)" d="m0 0 5 1 1 5 3 1-1 2-7 2-5 5-4-2-2-8 8-4z" fill="#68696D"/>
<path transform="translate(853,527)" d="m0 0 5 1 1 1v6l-6 4-2 6-9-9 1-3z" fill="#63656A"/>
<path transform="translate(1156,326)" d="m0 0 7 1 3 4v3l-6 2-6 5-5-3v-7z" fill="#E39717"/>
<path transform="translate(940,471)" d="m0 0 4 1 1 6-5-1v2l-5 5-3 2-7-1-1-4 10-7z" fill="#5A5D62"/>
<path transform="translate(1055,429)" d="m0 0 2 1 3 17 1 8v16l-3 1-2-17-2-23z" fill="#E69817"/>
<path transform="translate(1253,283)" d="m0 0 1 2-1 8 1 2h-3v2l-7 1-1-3-3-1-1-5 4-4z" fill="#FEB52D"/>
<path transform="translate(87,667)" d="m0 0 3 1 9 12 10 13 2 4 3 1 6 8 4 2 4 5v2l-3 1-10-11-9-11-13-17-6-9z" fill="#68696E"/>
<path transform="translate(314,131)" d="m0 0 5 1 2 10-5 3-7 1-2-5 1-5z" fill="#FCFCFC"/>
<path transform="translate(944,592)" d="m0 0 3 1-11 8-23 15-18 12-7 4 2-4 11-8 10-6 12-8 11-7z" fill="#616368"/>
<path transform="translate(1866,194)" d="m0 0 4 2 1 2v8l-1 4 4 1-8 2h-6l5-18z" fill="#FEDDA8"/>
<path transform="translate(1248,277)" d="m0 0 4 1 2 2-1 4-10 2-3 3 1 5 3 3h6l-4 4-7-6-1-2v-6l-4-1-2-3 11-2z" fill="#FED082"/>
<path transform="translate(275,145)" d="m0 0h6l-2 2 3 5v8l-1 2-3-1-3-10h-2l2 7-4-1-3-6v-3z" fill="#B3B4B4"/>
<path transform="translate(214,189)" d="m0 0 3 1 2 4 4 4 1 5-4 3h-7l-3-3 1-4 3-5z" fill="#FDFDFD"/>
<path transform="translate(1371,645)" d="m0 0 4 2 8 7-1 4-3 3-6-2-2-5-3-1 1-5z" fill="#FEDBA4"/>
<path transform="translate(1266,260)" d="m0 0 4 2 3 4v2l4 1 5 2v2l-4 2-5 9-3-1v-12l-3-6z" fill="#E79D20"/>
<path transform="translate(1767,137)" d="m0 0 2 3 7 2 2 3-1 6-2 2-4-1-9-4 2-1z" fill="#FEDBA4"/>
<path transform="translate(365,444)" d="m0 0 3 3 2 6h2l6 9 3 4 3 5 6 4 8 3v1l-7-1-11-7-8-9-5-8-2-5z" fill="#5E6066"/>
<path transform="translate(1307,221)" d="m0 0h1l3 11-10-2-9 1-5 3-5 4-2-2 3-5 8-4 10-2 5-2z" fill="#E69818"/>
<path transform="translate(1765,732)" d="m0 0h2l1 4-10 6-3 4h-2v11h-1l-1-18 3-5h7z" fill="#FFDDA8"/>
<path transform="translate(1138,248)" d="m0 0h4l-2 4-8 6-6 4-4 4-8 1 2-6 12-5 4-4h3v-2z" fill="#E59616"/>
<path transform="translate(1881,207)" d="m0 0 3 1v6l-2 2-16 3h-2l-1 4-7 4h-6l1-5 7-7v3l-5 6 5-2 5-5 6-2 9-2 3-1 1-3-4-1z" fill="#FDD696"/>
<path transform="translate(259,711)" d="m0 0 5 1v3h2l6 9v4l-9-1-2-3-2-9z" fill="#76777A"/>
<path transform="translate(1333,228)" d="m0 0 4 5 3 4-4 3h-2v2l-7-1-4-9 8-2z" fill="#FEB52D"/>
<path transform="translate(834,538)" d="m0 0 4 2 12 18-1 6-4-1-1-5h-2l1-4-4-2-2-6v-3h-3l-1-4z" fill="#5B5D63"/>
<path transform="translate(837,550)" d="m0 0h2l2 7-5 3-9 3-5 2-1-3 5-6 9-2v-2h2z" fill="#EAEAEA"/>
<path transform="translate(1309,256)" d="m0 0h6l-1 4-7 4-15 2v-6l12-1z" fill="#F7F3EB"/>
<path transform="translate(1793,703)" d="m0 0 4 1 5 7v5h6l2 2h-8v8l-2-1-2-9-6-7v-5z" fill="#FED388"/>
<path transform="translate(1241,271)" d="m0 0 1 2h2l2 6-3 3-9 2-2-1v-7l8-4z" fill="#FDB42A"/>
<path transform="translate(1192,313)" d="m0 0h6l4 2-2 4-2 1h-10l2 9 3 5-4-1-2-3v-10l-3-1 4-2z" fill="#FCD89D"/>
<path transform="translate(1334,221)" d="m0 0 4 1v4l-5 3-4 3-7 1-2-4h2l2-4 6-3z" fill="#F7D69F"/>
<path transform="translate(942,479)" d="m0 0 5 1 1 4-11 7h-4v-2l-3-1 5-5z" fill="#F5F5F5"/>
<path transform="translate(1596,442)" d="m0 0 6 1 3 2-3 6-10 6h-2l2-5 1-4 2-5z" fill="#8D8E90"/>
<path transform="translate(1859,657)" d="m0 0h6l7 3 2 4-11 1-4 3 1-4h-4v-3l-4-1z" fill="#FFDDA8"/>
<path transform="translate(1826,692)" d="m0 0h6l12 6 2 3-1 1-9-1-7-2-3-4z" fill="#FDFDFD"/>
<path transform="translate(249,691)" d="m0 0 4 1 14 9 1 2-8 1-7-3-4-7z" fill="#6D6E72"/>
<path transform="translate(1854,645)" d="m0 0 4 2-12 14-4 1-1-5 7-8z" fill="#FDFDFD"/>
<path transform="translate(1197,295)" d="m0 0 3 1 4 7 2 1 3 7 5 7v2l-3-1-1-5-8-2-3-5v-5l-3-5z" fill="#E39719"/>
<path transform="translate(1324,215)" d="m0 0h2v5l2 3-5 4-1 2-5-2-3-5v-2l6-2z" fill="#FBB42D"/>
<path transform="translate(1338,223)" d="m0 0h2v2l5 2 1 6-5 3-4-2-3-3 1-5h3z" fill="#E69717"/>
<path transform="translate(404,475)" d="m0 0 8 1 6 4 6 1v1l-6 1h-12l-3-2 1-1-3-3z" fill="#959697"/>
<path transform="translate(1248,302)" d="m0 0 2 1-8 4h-3l-2 4-11 8-4 1 4-4-2-3 7-5 15-5z" fill="#D4CBBA"/>
<path transform="translate(883,503)" d="m0 0h8l4 6v5l1 2-5-2-5-4-5-5z" fill="#585B61"/>
<path transform="translate(1113,263)" d="m0 0h2l-1 4-5 5-4 1v3l-10 4 2-6z" fill="#D89311"/>
<path transform="translate(1770,129)" d="m0 0 6 1 9 5 2 4-1 1-9-1-6-3h-3v-2h6v-2z" fill="#FED898"/>
<path transform="translate(831,538)" d="m0 0 3 1 1 4h3l1 3h-2l1 4-1 2h-2l-1 2-3-2-2-5-3-2 3-1 2-3-4-2z" fill="#7F8083"/>
<path transform="translate(1795,148)" d="m0 0 5 1 2 4v6l-10-1-1-2 2-7z" fill="#FABA47"/>
<path transform="translate(1264,281)" d="m0 0 1 3h4l1-3 2 3-1 4-9 7h-2v2l-8 5-2-1 9-8 4-2 1-5-1-2z" fill="#EEE2CE"/>
<path transform="translate(1751,127)" d="m0 0 2 3-2 11-4 6-5 5-7 1-4-2 10-1 2-1 2-8 2-5 3-1z" fill="#FED99D"/>
<path transform="translate(318,125)" d="m0 0h3l4 13-1 5h-2v-3h-2l-1-10-8 2 1-3z" fill="#929395"/>
<path transform="translate(184,767)" d="m0 0 5 2 16 11 19 12 2 2h-3l-15-9-15-10-9-7z" fill="#64666B"/>
<path transform="translate(890,627)" d="m0 0m-1 1m-1 1m-2 1h2l-2 4-26 17v-3l5-4 9-6h2v-2l5-1v-2z" fill="#5B5E63"/>
<path transform="translate(1716,737)" d="m0 0 9 1 12 4-3 10-2 3 1-13-14-1-6 3-2-1z" fill="#F1D9B4"/>
<path transform="translate(796,566)" d="m0 0h3l10 16-1 2-8-5-2-1 1-4-3-1-1-3z" fill="#606268"/>
<path transform="translate(1786,160)" d="m0 0 6 2 4 1 8 1-2 2h-7l-6-2-9 6-3-1 1-4 7-3z" fill="#F7D8A6"/>
<path transform="translate(786,578)" d="m0 0 7 3 7 4v2l-4-1 3 9 1 4-4-4-10-15z" fill="#616368"/>
<path transform="translate(1331,211)" d="m0 0 3 4v7l-6 1-3-3 1-6z" fill="#E59717"/>
<path transform="translate(739,608)" d="m0 0h5l4 4-3 3-5 3-3 1 1-10z" fill="#5E6166"/>
<path transform="translate(733,227)" d="m0 0 7 1 4 5v3l-7-1 1-4-3 2-5-1 2-4z" fill="#BBBCBC"/>
<path transform="translate(896,497)" d="m0 0 5 1 7 9 2 3v3h-2v-3h-2l-3-4-5-2v-4l-4 1z" fill="#5E6166"/>
<path transform="translate(881,514)" d="m0 0 5 3 3 3v3l4 1-3 1-7 1-2-5z" fill="#6D6F74"/>
<path transform="translate(1173,326)" d="m0 0 7 6v7l-2 2v-2l-4-2-3-10z" fill="#FEB52B"/>
<path transform="translate(1856,183)" d="m0 0 3 3v9l-3 7-5 6-8 4-7-1-2-3 10 1 6-3 1-3 5-5 1-4v-7z" fill="#F5D6A1"/>
<path transform="translate(1196,210)" d="m0 0 2 2-1 2h-2v2l-9 6-3-1 2-4 5-5z" fill="#E49616"/>
<path transform="translate(853,527)" d="m0 0 5 1 1 1v6h-5-3l-3-1 2-5z" fill="#5E6066"/>
<path transform="translate(912,613)" d="m0 0m-1 1v3l-16 11-7 4 2-4 11-8z" fill="#5F6167"/>
<path transform="translate(816,551)" d="m0 0 6 1 1 2-1 2h3l-2 4-4 2-3-5-1-5z" fill="#606268"/>
<path transform="translate(1805,699)" d="m0 0h2l3 4v3l4 1 2 4h-3l-4-2-8-2v-2l6-1z" fill="#FFDDA8"/>
<path transform="translate(1215,319)" d="m0 0 7 1-1 2-6 3-9 8-6 2 7-7-1-2 9-3z" fill="#CDC2AF"/>
<path transform="translate(1248,277)" d="m0 0 4 1 2 2-1 4h-10l1-4z" fill="#F3D7A9"/>
<path transform="translate(1858,215)" d="m0 0v3l-5 6 5-2 6-5v5l-8 5h-6l1-5z" fill="#FCD99E"/>
<path transform="translate(1211,200)" d="m0 0h3l-2 4-9 7-4-1 6-8z" fill="#E49616"/>
<path transform="translate(1755,722)" d="m0 0h5l1 2 2-1v4l-3 1-4 4v-2l-4 1-5-2v9h-1v-10l12-2 1-2z" fill="#FFDDA8"/>
<path transform="translate(1550,470)" d="m0 0 11 2 1 2-1 3-8-1-5-3v-2z" fill="#8D8E90"/>
<path transform="translate(1156,338)" d="m0 0 2 1 6-1-1 3h7l2 3h-15l-2 2-1-5z" fill="#FCD89C"/>
<path transform="translate(273,151)" d="m0 0h2l4 10 3 4-1 3h-3l-5-8 1-4z" fill="#919294"/>
<path transform="translate(741,616)" d="m0 0h5l1 6-1 1h-9l1-4z" fill="#F5F6F6"/>
<path transform="translate(1813,172)" d="m0 0 1 2-1 2v9l4 4 1 4-5 1-2-2 4-1-1-3-3-1-1-3-2-1 2-7z" fill="#F9D69C"/>
<path transform="translate(781,593)" d="m0 0 5 5v2h-2v2l6 1-4 2-3 1-2-2v-5l-5-1 4-2z" fill="#999A9C"/>
<path transform="translate(828,565)" d="m0 0h3l3 5v3l-6 1-3-3v-2h2z" fill="#5A5D62"/>
<path transform="translate(1315,245)" d="m0 0 3 2 1 9-4 5-2-1 2-4-4-1 5-1-2-4z" fill="#F0D4A6"/>
<path transform="translate(1836,181)" d="m0 0h11l3 3-9-1-5 2-5 7-2 3v-6l5-7z" fill="#F3D6A5"/>
<path transform="translate(255,702)" d="m0 0 8 1 6-1 3 2-3 1-4-1v5l-1 1h-7v-1h5v-2l-5-2z" fill="#ACADAE"/>
<path transform="translate(1180,333)" d="m0 0h3l4 10-2 3-1-3-5-1z" fill="#E69A18"/>
<path transform="translate(279,149)" d="m0 0h2l1 3v8l-1 2-3-1-1-7z" fill="#F7F7F7"/>
<path transform="translate(372,393)" d="m0 0 1 2-3 5-4 12-1 5h-1v-8l5-14z" fill="#5E6066"/>
<path transform="translate(162,749)" d="m0 0 6 4 12 10 5 4h-3l-13-10-7-6z" fill="#686A6E"/>
<path transform="translate(140,729)" d="m0 0 8 6 11 11 3 2-1 2-10-9-8-7-3-3z" fill="#67696D"/>
<path transform="translate(1826,670)" d="m0 0v3l-1 2 6 2 2 2-8 1-4-3 2-4z" fill="#FFDDA8"/>
<path transform="translate(227,179)" d="m0 0h2v2h2l2 7v2l-4-2-5-6v-2z" fill="#969799"/>
<path transform="translate(1793,139)" d="m0 0 7 3 6 4 5 5v6l-2-3-5-7-9-5-5-1z" fill="#FED795"/>
<path transform="translate(1794,733)" d="m0 0 4 1-1 3-4 2-1 2-3 1-2 3-4-1 3-1 4-7 4-1z" fill="#FFDDA8"/>
<path transform="translate(1781,706)" d="m0 0 2 1-2 4h5v2l-11 1 2-4-4-1z" fill="#FFDDA8"/>
<path transform="translate(495,447)" d="m0 0h1v33l-5-1 3-5z" fill="#56595F"/>
<path transform="translate(1105,271)" d="m0 0h2v2h-2v3l-10 4 2-6z" fill="#E49616"/>
<path transform="translate(1156,343)" d="m0 0h9l-2 1-1 7h-4l-2-5z" fill="#FEB630"/>
<path transform="translate(1727,132)" d="m0 0h1l1 9 3 4h7l2-1-1 3-5 1-7-3-2-3v-7z" fill="#FCD594"/>
<path transform="translate(934,494)" d="m0 0h6l1 5h2l-1 3-5-1-3-4z" fill="#5A5D62"/>
<path transform="translate(270,704)" d="m0 0 4 1 4 5-1 5h-2l-5-9z" fill="#6C6E72"/>
<path transform="translate(1826,687)" d="m0 0 2 1v2h6l8 6h-3l-7-3-6-1z" fill="#FFDDA8"/>
<path transform="translate(87,667)" d="m0 0 3 1 9 12 2 4h-3l-11-16z" fill="#6A6B6F"/>
<path transform="translate(1067,295)" d="m0 0h3l-2 5-4 3h-4l1-4z" fill="#E69717"/>
<path transform="translate(1154,333)" d="m0 0 6 2-5 6-5-2 2-5z" fill="#FEB52B"/>
<path transform="translate(1170,326)" d="m0 0 2 2 3 10-3 1v-4h-3l-1-7z" fill="#FEDA9F"/>
<path transform="translate(1800,709)" d="m0 0 2 2v5h6l2 2h-8v8l-2-1-1-9 1-4z" fill="#FFDDA8"/>
<path transform="translate(1234,285)" d="m0 0h5l1 2 1 7 3 3h6l-4 4-7-6-1-2v-6l-4-1z" fill="#EED3A6"/>
<path transform="translate(791,263)" d="m0 0 2 1-6 7-5 3 2-7 4-3z" fill="#C4C5C5"/>
<path transform="translate(1231,187)" d="m0 0 1 2h-2l-1 3-8 5h-2l1-3 4-3h2v-3z" fill="#E59616"/>
<path transform="translate(1787,162)" d="m0 0 14 1 3 2-2 1h-7l-6-2-4 1z" fill="#FED692"/>
<path transform="translate(121,706)" d="m0 0 6 5 1 4-3 1-4-4z" fill="#737478"/>
<path transform="translate(847,531)" d="m0 0 2 1-1 2 4 1v2l-5-1-1 2-4-2 1-3z" fill="#76787C"/>
<path transform="translate(907,491)" d="m0 0h3l2 10h-2l-5-7v-2z" fill="#63666B"/>
<path transform="translate(278,146)" d="m0 0h5l4 5-1 4-1-2-2 1v-2h-2z" fill="#9A9B9C"/>
<path transform="translate(1734,121)" d="m0 0 7 1 1 2-9 1-4 7-1-3 4-7z" fill="#FED590"/>
<path transform="translate(244,678)" d="m0 0 4 2 7 6-3 1-4-1-3-5z" fill="#CACBCB"/>
<path transform="translate(830,545)" d="m0 0 4 2 1 2 2-2 1 3-1 2h-2l-1 2-3-2z" fill="#8E8F91"/>
<path transform="translate(963,580)" d="m0 0 2 1-14 10-3-1 10-7z" fill="#5E6166"/>
<path transform="translate(407,464)" d="m0 0h8v4l-5 1-2-1z" fill="#8D8E90"/>
<path transform="translate(1268,253)" d="m0 0h6l10 10h-3l-10-8z" fill="#F7B841"/>
<path transform="translate(1323,232)" d="m0 0 4 1 1 4 7 2-1 3-7-1z" fill="#E79818"/>
<path transform="translate(1850,206)" d="m0 0 2 1-6 4-7 1-5-3 2-1 8 1z" fill="#FBD491"/>
<path transform="translate(1158,236)" d="m0 0 2 2-11 7-1-2 2-3h3v-2z" fill="#E69717"/>
<path transform="translate(1775,142)" d="m0 0 3 3-1 6-2 2-4-1 2-2z" fill="#FED07F"/>
<path transform="translate(1769,135)" d="m0 0 6 2 3 3h-10z" fill="#EC9F1C"/>
<path transform="translate(1770,160)" d="m0 0 3 1 2 2 3 1h-2l1 3-11-2-2-2h6z" fill="#FED182"/>
<path transform="translate(184,767)" d="m0 0 5 2 10 7-2 2-13-10z" fill="#63656A"/>
<path transform="translate(1354,650)" d="m0 0h3l-2 5-4 4-2-2z" fill="#FED590"/>
<path transform="translate(771,589)" d="m0 0 9 2-1 2-8 1z" fill="#ABACAD"/>
<path transform="translate(1296,250)" d="m0 0 4 2-5 4-5-2 4-3z" fill="#FDB42A"/>
<path transform="translate(1334,221)" d="m0 0 4 1v4h-9v-2z" fill="#F7F1E5"/>
<path transform="translate(1754,147)" d="m0 0 1 3-1 7 3 2 3 3-7-2-2-2 1-7z" fill="#FED692"/>
<path transform="translate(1733,741)" d="m0 0 4 1-3 10-2 3z" fill="#FFDDA8"/>
<path transform="translate(825,670)" d="m0 0m-1 1m-1 1m-3 1h3v3l-9 5 2-4z" fill="#5E6166"/>
<path transform="translate(1375,649)" d="m0 0 4 1 4 4v3h-3l-5-6z" fill="#FED38B"/>
<path transform="translate(312,145)" d="m0 0 4 1-5 2v2l4 1-5 2-2-4v-3z" fill="#929395"/>
<path transform="translate(747,613)" d="m0 0h2l1 6-3 3-1-6-4-1z" fill="#B6B7B8"/>
<path transform="translate(444,383)" d="m0 0 4 2 7 11-2 1-6-9-3-3z" fill="#616469"/>
<path transform="translate(1206,326)" d="m0 0h5l-1 4-8 5-2-1 7-6z" fill="#CEC9BE"/>
<path transform="translate(1262,292)" d="m0 0v3h-2v2l-8 5-2-1 9-8z" fill="#CAC7BE"/>
<path transform="translate(732,228)" d="m0 0h5v2h2l-1 2-6 1-2-1z" fill="#CBCCCC"/>
<path transform="translate(1869,215)" d="m0 0 8 1-3 2-10 1v-2z" fill="#FED694"/>
<path transform="translate(1821,157)" d="m0 0 2 3-2 5-7 7 2-6 4-5z" fill="#EFD5A9"/>
<path transform="translate(1802,726)" d="m0 0 3 1v6l-5 2-2-2 3-1v-2h2z" fill="#FFDDA8"/>
<path transform="translate(865,527)" d="m0 0 3 1 3 5-1 3-2-2-2 3z" fill="#909193"/>
<path transform="translate(1193,336)" d="m0 0 5 1-5 4-7 1v-2l5-1z" fill="#EDD5AD"/>
<path transform="translate(1193,296)" d="m0 0h2v3h-2l-2 5-2 1-1-6z" fill="#FCD695"/>
<path transform="translate(275,147)" d="m0 0 5 1-3 8-2-3z" fill="#D0D1D1"/>
<path transform="translate(1816,692)" d="m0 0 9 1v4l-4-1-5-1z" fill="#FED48D"/>
<path transform="translate(249,691)" d="m0 0 4 1 2 1v2h-2v3l-3-1z" fill="#6B6D72"/>
<path transform="translate(807,284)" d="m0 0h1v11l-4-1 1-5z" fill="#BBBCBC"/>
<path transform="translate(1241,264)" d="m0 0h7l-2 5-2-1v-1h-8l2-2z" fill="#E4CB9F"/>
</svg>
