<?xml version="1.0" encoding="UTF-8"?>
<svg version="1.1" xmlns="http://www.w3.org/2000/svg" width="80" height="28">
<path d="M0 0 C26.4 0 52.8 0 80 0 C80 9.24 80 18.48 80 28 C53.6 28 27.2 28 0 28 C0 18.76 0 9.52 0 0 Z " fill="#F2F4FC" transform="translate(0,0)"/>
<path d="M0 0 C18.48 0 36.96 0 56 0 C53 15 53 15 51 20 C35.20591956 22.09589693 20.79408044 22.09589693 5 20 C4.16247839 17.04283593 3.33069969 14.084087 2.5 11.125 C2.26152344 10.28324219 2.02304688 9.44148437 1.77734375 8.57421875 C1.55175781 7.76855469 1.32617188 6.96289062 1.09375 6.1328125 C0.88427734 5.38918457 0.67480469 4.64555664 0.45898438 3.87939453 C0 2 0 2 0 0 Z " fill="#244AE3" transform="translate(12,6)"/>
<path d="M0 0 C8.58 0 17.16 0 26 0 C26 9.24 26 18.48 26 28 C14.78 28 3.56 28 -8 28 C-8 27.67 -8 27.34 -8 27 C0.415 26.505 0.415 26.505 9 26 C9.41572266 24.10314453 9.41572266 24.10314453 9.83984375 22.16796875 C10.20564498 20.50779395 10.57153502 18.84763871 10.9375 17.1875 C11.11990234 16.35412109 11.30230469 15.52074219 11.49023438 14.66210938 C11.66748047 13.85966797 11.84472656 13.05722656 12.02734375 12.23046875 C12.18968506 11.49207764 12.35202637 10.75368652 12.51928711 9.99291992 C13 8 13 8 14 5 C6.08 5 -1.84 5 -10 5 C-10 4.67 -10 4.34 -10 4 C-6.7 4 -3.4 4 0 4 C0 2.68 0 1.36 0 0 Z " fill="#FDFDFE" transform="translate(54,0)"/>
<path d="M0 0 C11.22 0 22.44 0 34 0 C32.875 9 32.875 9 32 12 C28.99594599 12.86915167 26.3144404 13.12855313 23.19140625 13.1328125 C22.27939453 13.13410156 21.36738281 13.13539062 20.42773438 13.13671875 C19.48220703 13.13285156 18.53667969 13.12898438 17.5625 13.125 C16.62083984 13.12886719 15.67917969 13.13273437 14.70898438 13.13671875 C13.79568359 13.13542969 12.88238281 13.13414063 11.94140625 13.1328125 C11.11326416 13.13168457 10.28512207 13.13055664 9.43188477 13.12939453 C6.87366544 12.99327805 4.49684349 12.56029446 2 12 C2 10.68 2 9.36 2 8 C4.31 8 6.62 8 9 8 C9 8.99 9 9.98 9 11 C16.92 10.505 16.92 10.505 25 10 C25 9.34 25 8.68 25 8 C17.08 7.67 9.16 7.34 1 7 C1 6.34 1 5.68 1 5 C13.375 4.505 13.375 4.505 26 4 C26.33 3.34 26.66 2.68 27 2 C18.09 2 9.18 2 0 2 C0 1.34 0 0.68 0 0 Z " fill="#FAFAF7" transform="translate(23,10)"/>
<path d="M0 0 C7.59 0 15.18 0 23 0 C20.46236559 13.95698925 20.46236559 13.95698925 19 18 C15.13209648 20.57860235 12.23386085 20.01114505 7.8125 19.625 C7.06291016 19.56828125 6.31332031 19.5115625 5.54101562 19.453125 C3.69323441 19.31189331 1.846488 19.15723833 0 19 C0 18.34 0 17.68 0 17 C-1.32 16.67 -2.64 16.34 -4 16 C2.27 15.67 8.54 15.34 15 15 C15.33 12.69 15.66 10.38 16 8 C16.33 6.35 16.66 4.7 17 3 C-0.325 3.495 -0.325 3.495 -18 4 C-18 3.34 -18 2.68 -18 2 C-12.06 2 -6.12 2 0 2 C0 1.34 0 0.68 0 0 Z " fill="#376CEF" transform="translate(40,7)"/>
<path d="M0 0 C18.48 0 36.96 0 56 0 C53 15 53 15 51 20 C47.37 20 43.74 20 40 20 C40 19.67 40 19.34 40 19 C42.31 19 44.62 19 47 19 C47.103125 18.071875 47.20625 17.14375 47.3125 16.1875 C47.78816735 12.78384549 48.62234763 9.54807461 49.54296875 6.23828125 C49.95131958 4.76355347 49.95131958 4.76355347 50.36791992 3.2590332 C50.57650635 2.51355225 50.78509277 1.76807129 51 1 C44.2004296 1.09212018 37.40122142 1.19940545 30.60205078 1.31738281 C28.28765331 1.35573401 25.97319498 1.3905759 23.65869141 1.421875 C20.33734336 1.4673924 17.01641659 1.52540843 13.6953125 1.5859375 C12.65569366 1.59748871 11.61607483 1.60903992 10.54495239 1.62094116 C9.58410736 1.64081085 8.62326233 1.66068054 7.63330078 1.68115234 C6.36089035 1.70113785 6.36089035 1.70113785 5.06277466 1.7215271 C2.77813881 1.81776158 2.77813881 1.81776158 1 4 C0.67 2.68 0.34 1.36 0 0 Z " fill="#2248E2" transform="translate(12,6)"/>
<path d="M0 0 C8.91 0 17.82 0 27 0 C26.67 0.99 26.34 1.98 26 3 C17.75 3 9.5 3 1 3 C0.67 2.01 0.34 1.02 0 0 Z " fill="#3762E8" transform="translate(23,12)"/>
<path d="M0 0 C0 0.66 0 1.32 0 2 C3.3 2 6.6 2 10 2 C2.15971613 5.92014194 -7.48954959 4.05439209 -16 3 C-11.63916396 -1.90100002 -6.05446542 -1.32902899 0 0 Z " fill="#3559E5" transform="translate(40,24)"/>
<path d="M0 0 C18.48 0 36.96 0 56 0 C55.34 1.32 54.68 2.64 54 4 C54 3.01 54 2.02 54 1 C46.77319827 1.09210866 39.54673774 1.19939246 32.3203125 1.31738281 C29.86040398 1.35573762 27.40043813 1.39057884 24.94042969 1.421875 C21.41059837 1.46738451 17.88116405 1.52540198 14.3515625 1.5859375 C13.24632233 1.59748871 12.14108215 1.60903992 11.00234985 1.62094116 C9.98144257 1.64081085 8.96053528 1.66068054 7.90869141 1.68115234 C7.00712311 1.69447601 6.10555481 1.70779968 5.17666626 1.7215271 C2.79101999 1.80120842 2.79101999 1.80120842 1 4 C0.67 2.68 0.34 1.36 0 0 Z " fill="#163EE0" transform="translate(12,6)"/>
<path d="M0 0 C5.61 0 11.22 0 17 0 C16.67 0.99 16.34 1.98 16 3 C12.57767028 4.14077657 9.91326783 4.09815117 6.3125 4.0625 C4.54326172 4.04896484 4.54326172 4.04896484 2.73828125 4.03515625 C1.83464844 4.02355469 0.93101563 4.01195312 0 4 C0 2.68 0 1.36 0 0 Z " fill="#2E51E2" transform="translate(32,17)"/>
<path d="M0 0 C2.97 0 5.94 0 9 0 C9 1.32 9 2.64 9 4 C6.03 4 3.06 4 0 4 C0 2.68 0 1.36 0 0 Z " fill="#1A1A1A" transform="translate(35,0)"/>
<path d="M0 0 C2.64 0 5.28 0 8 0 C8 1.32 8 2.64 8 4 C5.36 4 2.72 4 0 4 C0 2.68 0 1.36 0 0 Z " fill="#141414" transform="translate(46,0)"/>
<path d="M0 0 C2.97 0 5.94 0 9 0 C9 1.32 9 2.64 9 4 C6.03 4 3.06 4 0 4 C0 2.68 0 1.36 0 0 Z " fill="#282828" transform="translate(25,0)"/>
<path d="M0 0 C2.31 0 4.62 0 7 0 C7 1.65 7 3.3 7 5 C4.69 4.67 2.38 4.34 0 4 C0 2.68 0 1.36 0 0 Z " fill="#DEE1EA" transform="translate(25,18)"/>
<path d="M0 0 C2.97 0 5.94 0 9 0 C8.67 0.99 8.34 1.98 8 3 C5.36 3.33 2.72 3.66 0 4 C0 2.68 0 1.36 0 0 Z " fill="#2863F0" transform="translate(40,17)"/>
<path d="M0 0 C3.3 0 6.6 0 10 0 C10.33 0.66 10.66 1.32 11 2 C8.69 2.33 6.38 2.66 4 3 C4 2.34 4 1.68 4 1 C2.68 0.67 1.36 0.34 0 0 Z " fill="#4779EF" transform="translate(36,23)"/>
</svg>
