<?xml version="1.0" encoding="UTF-8"?>
<svg version="1.1" viewBox="0 0 2048 1462" width="1280" height="1280" xmlns="http://www.w3.org/2000/svg">
<path transform="translate(0)" d="m0 0h2048v1462h-2048z" fill="#FDFDFD"/>
<path transform="translate(776,417)" d="m0 0h367l246 1-1 15-17 189-11 125-14 156-12 134-7 78-2 25-1 20-8 4-42 12-187 52-55 16-3 1h-11l-215-60-63-18-13-5-3-3-5-60-11-121-19-212-15-168-12-134-3-35v-10l15-1z" fill="#2152F0"/>
<path transform="translate(795,570)" d="m0 0h457l1 1v14l-5 56-7 78-8 89-7 79-10 109-3 36-3 5-35 10-47 13-62 17-31 9-9 4-9-2-25-8-112-31-41-11-4-2-1-3-5-60-5-58-1-23h91l2 3 5 53 2 17 11 3 29 8 34 9 23 7 7-1 50-14 45-12 2-1 2-16 9-96 1-5-316 1-2-3-4-34-4-46v-10l311-1 22-1 1-3 7-85v-3h-349l-2-12-5-57-1-22z" fill="#FDFDFD"/>
<path transform="translate(1e3 214)" d="m0 0h39l32 1v40l-63 1v7l63 1v92h-110v-42l65-1 1-3-2-3-21-1-43-1v-90z" fill="#010206"/>
<path transform="translate(1097,215)" d="m0 0h107l3 1v39l-65 1-1 7 66 1v92h-109l-1-1v-41h65l-2-7-62-2-1-1z" fill="#010204"/>
<path transform="translate(831,215)" d="m0 0h109v47l-62 1-1 3v41h51l12 1v46l-45 1h-64l-1-1v-114z" fill="#010205"/>
</svg>
