<?xml version="1.0" encoding="UTF-8"?>
<svg version="1.1" xmlns="http://www.w3.org/2000/svg" width="80" height="28">
<path d="M0 0 C26.4 0 52.8 0 80 0 C80 9.24 80 18.48 80 28 C53.6 28 27.2 28 0 28 C0 18.76 0 9.52 0 0 Z " fill="#FA8027" transform="translate(0,0)"/>
<path d="M0 0 C0.94165512 -0.00287018 1.88331024 -0.00574036 2.85350037 -0.00869751 C4.84138593 -0.01073663 6.82929163 -0.0052174 8.81713867 0.00732422 C11.86357317 0.02339782 14.90868455 0.00746106 17.95507812 -0.01171875 C19.88672168 -0.00973664 21.81836442 -0.00589364 23.75 0 C25.11881065 -0.00910904 25.11881065 -0.00910904 26.51527405 -0.0184021 C27.36302902 -0.00894562 28.210784 0.00051086 29.08422852 0.01025391 C30.20197411 0.01383408 30.20197411 0.01383408 31.34230042 0.01748657 C33.87559158 0.50828802 34.78226942 1.34448255 36.30859375 3.3984375 C36.30859375 4.3884375 36.30859375 5.3784375 36.30859375 6.3984375 C35.75171875 6.2540625 35.19484375 6.1096875 34.62109375 5.9609375 C32.1947518 5.37074622 29.7595303 4.8750085 27.30859375 4.3984375 C27.30859375 5.3884375 27.30859375 6.3784375 27.30859375 7.3984375 C28.25734375 7.8521875 29.20609375 8.3059375 30.18359375 8.7734375 C33.30859375 10.3984375 33.30859375 10.3984375 35.30859375 12.3984375 C35.18359375 15.8984375 35.18359375 15.8984375 34.30859375 19.3984375 C28.62668183 24.39851999 15.82291319 22.54633517 8.80859375 22.5234375 C7.03162109 22.52923828 7.03162109 22.52923828 5.21875 22.53515625 C-11.33593578 22.51670064 -11.33593578 22.51670064 -15.19140625 19.3359375 C-17.13837696 15.52311985 -17.39844228 12.59806116 -16.69140625 8.3984375 C-13.0926067 0.3011385 -8.07315145 -0.05384393 0 0 Z " fill="#F67D2C" transform="translate(31.69140625,2.6015625)"/>
<path d="M0 0 C26.4 0 52.8 0 80 0 C80 9.24 80 18.48 80 28 C53.6 28 27.2 28 0 28 C0 18.76 0 9.52 0 0 Z M3 2 C3 9.92 3 17.84 3 26 C27.42 26 51.84 26 77 26 C77 18.08 77 10.16 77 2 C52.58 2 28.16 2 3 2 Z " fill="#23170F" transform="translate(0,0)"/>
<path d="M0 0 C2.93804996 -0.08086376 5.87388075 -0.1404283 8.8125 -0.1875 C9.64587891 -0.21263672 10.47925781 -0.23777344 11.33789062 -0.26367188 C12.54155273 -0.27817383 12.54155273 -0.27817383 13.76953125 -0.29296875 C14.87711792 -0.31653442 14.87711792 -0.31653442 16.00708008 -0.34057617 C18.58085672 0.09926438 19.46076932 0.92062435 21 3 C21 3.99 21 4.98 21 6 C20.443125 5.855625 19.88625 5.71125 19.3125 5.5625 C16.88615805 4.97230872 14.45093655 4.476571 12 4 C12 4.99 12 5.98 12 7 C13.423125 7.680625 13.423125 7.680625 14.875 8.375 C18 10 18 10 20 12 C19.875 15.5 19.875 15.5 19 19 C14.09400456 23.31727599 4.1980254 22.12912553 -2 22 C-2 21.34 -2 20.68 -2 20 C-1.505 19.566875 -1.01 19.13375 -0.5 18.6875 C1.21615839 17.05451358 1.21615839 17.05451358 1.4375 14.5 C1.23464814 11.89450363 1.23464814 11.89450363 -0.75 10.3125 C-2.80117418 9.11598173 -4.84631123 7.99992693 -7 7 C-6.67 5.68 -6.34 4.36 -6 3 C-2.65626525 3.55728913 0.03312999 4.35173889 3 6 C1.515 3.03 1.515 3.03 0 0 Z " fill="#F67D2A" transform="translate(47,3)"/>
<path d="M0 0 C2 1.3125 2 1.3125 3 3 C3 3.99 3 4.98 3 6 C2.443125 5.855625 1.88625 5.71125 1.3125 5.5625 C-1.11384195 4.97230872 -3.54906345 4.476571 -6 4 C-6 4.99 -6 5.98 -6 7 C-4.576875 7.680625 -4.576875 7.680625 -3.125 8.375 C0 10 0 10 2 12 C1.875 15.5 1.875 15.5 1 19 C-1.31364135 20.97087967 -2.97838727 20.99774867 -6 21.3125 C-9.33286741 20.96532631 -10.69003641 20.39880834 -13 18 C-13 17.01 -13 16.02 -13 15 C-11.68 15 -10.36 15 -9 15 C-9 15.66 -9 16.32 -9 17 C-6.69 17 -4.38 17 -2 17 C-3.50549556 12.78461243 -6.29317565 11.28718949 -10 9 C-11 8 -11 8 -11.25 5.625 C-11 3 -11 3 -10 1.1875 C-6.81103395 -0.70594859 -3.60943101 -0.5639736 0 0 Z " fill="#4748C6" transform="translate(65,3)"/>
<path d="M0 0 C1.9375 1.3125 1.9375 1.3125 3 3 C3 3.99 3 4.98 3 6 C2.443125 5.855625 1.88625 5.71125 1.3125 5.5625 C-1.11384195 4.97230872 -3.54906345 4.476571 -6 4 C-6 4.99 -6 5.98 -6 7 C-4.576875 7.680625 -4.576875 7.680625 -3.125 8.375 C0 10 0 10 2 12 C1.8125 15.5 1.8125 15.5 1 19 C-2.71013399 21.47342266 -4.61060262 21.38503486 -9 21 C-11.4375 19.6875 -11.4375 19.6875 -13 18 C-13 17.01 -13 16.02 -13 15 C-11.68 15 -10.36 15 -9 15 C-9 15.66 -9 16.32 -9 17 C-6.69 17 -4.38 17 -2 17 C-3.50549556 12.78461243 -6.29317565 11.28718949 -10 9 C-11 8 -11 8 -11.3125 5.625 C-11 3 -11 3 -9.4375 1.1875 C-6.0988975 -0.43899865 -3.66623504 -0.39995291 0 0 Z " fill="#4B4AC2" transform="translate(47,3)"/>
<path d="M0 0 C1.9375 1.3125 1.9375 1.3125 3 3 C3 3.99 3 4.98 3 6 C2.443125 5.855625 1.88625 5.71125 1.3125 5.5625 C-1.11384195 4.97230872 -3.54906345 4.476571 -6 4 C-9.36055646 8.48074195 -9.27429625 11.60550707 -9 17 C-6.02934491 16.65772428 -6.02934491 16.65772428 -3 16 C-2.67 15.34 -2.34 14.68 -2 14 C-0.68 14.33 0.64 14.66 2 15 C1.05275873 17.36810318 0.34708866 18.75207953 -1.75 20.25 C-4.75958907 21.25319636 -6.84699362 21.45981343 -10 21 C-12.49231528 18.90120818 -13.76413219 17.31449923 -14.34765625 14.0625 C-14.54293443 9.57959221 -13.86924873 6.58656091 -11 3 C-7.63897113 -0.48106562 -4.70974746 -0.51379063 0 0 Z " fill="#3E47CA" transform="translate(29,3)"/>
<path d="M0 0 C0.99 0 1.98 0 3 0 C3 9.24 3 18.48 3 28 C1.68 27.67 0.36 27.34 -1 27 C-0.67 18.09 -0.34 9.18 0 0 Z " fill="#070300" transform="translate(77,0)"/>
<path d="M0 0 C1.9375 1.3125 1.9375 1.3125 3 3 C3 3.99 3 4.98 3 6 C2.443125 5.855625 1.88625 5.71125 1.3125 5.5625 C-1.11384195 4.97230872 -3.54906345 4.476571 -6 4 C-6.33 4.99 -6.66 5.98 -7 7 C-7.66 7 -8.32 7 -9 7 C-9.33 5.35 -9.66 3.7 -10 2 C-6.30513897 -0.46324069 -4.36706908 -0.38991688 0 0 Z " fill="#3C46CC" transform="translate(47,3)"/>
<path d="M0 0 C1.32 0 2.64 0 4 0 C4.33 0.66 4.66 1.32 5 2 C7.01669827 3.13350534 7.01669827 3.13350534 9 4 C9 4.66 9 5.32 9 6 C2.25 5.25 2.25 5.25 0 3 C0 2.01 0 1.02 0 0 Z " fill="#3E46CE" transform="translate(34,18)"/>
<path d="M0 0 C4.49652778 -0.36458333 4.49652778 -0.36458333 6.8125 1.3125 C8 3 8 3 8 6 C4.85262818 5.30058404 1.97411124 4.23921302 -1 3 C-0.67 2.01 -0.34 1.02 0 0 Z " fill="#3A46CD" transform="translate(60,3)"/>
<path d="M0 0 C2.1875 0.3125 2.1875 0.3125 4 1 C2.25 4.875 2.25 4.875 0 6 C-0.99 5.67 -1.98 5.34 -3 5 C-3 3 -3 3 -1.75 1.3125 C-1.1725 0.879375 -0.595 0.44625 0 0 Z " fill="#454AC2" transform="translate(27,17)"/>
<path d="M0 0 C1.32 0 2.64 0 4 0 C4 0.66 4 1.32 4 2 C5.65 2 7.3 2 9 2 C6.66785852 3.20628008 4.50357861 4.1654738 2 5 C1.34 4.34 0.68 3.68 0 3 C0 2.01 0 1.02 0 0 Z " fill="#534CBB" transform="translate(52,18)"/>
<path d="M0 0 C0.33 0.66 0.66 1.32 1 2 C1.66 2.33 2.32 2.66 3 3 C0.29120665 4.35439668 -2.00933268 4.06501451 -5 4 C-5.33 3.34 -5.66 2.68 -6 2 C-4.02 1.34 -2.04 0.68 0 0 Z " fill="#3D46D0" transform="translate(61,20)"/>
<path d="M0 0 C2.72426311 2.35277269 3.8141763 4.62496331 5 8 C3.35 8 1.7 8 0 8 C0 5.36 0 2.72 0 0 Z " fill="#5A4CC4" transform="translate(15,11)"/>
</svg>
