<?xml version="1.0" encoding="UTF-8"?>
<!DOCTYPE svg PUBLIC "-//W3C//DTD SVG 1.1//EN" "http://www.w3.org/Graphics/SVG/1.1/DTD/svg11.dtd">
<svg xmlns="http://www.w3.org/2000/svg" version="1.1" width="145px" height="28px" style="shape-rendering:geometricPrecision; text-rendering:geometricPrecision; image-rendering:optimizeQuality; fill-rule:evenodd; clip-rule:evenodd" xmlns:xlink="http://www.w3.org/1999/xlink">
<g><path style="opacity:1" fill="#184435" d="M -0.5,-0.5 C 47.8333,-0.5 96.1667,-0.5 144.5,-0.5C 144.5,8.83333 144.5,18.1667 144.5,27.5C 96.1667,27.5 47.8333,27.5 -0.5,27.5C -0.5,18.1667 -0.5,8.83333 -0.5,-0.5 Z"/></g>
<g><path style="opacity:1" fill="#f1f2ed" d="M 25.5,4.5 C 28.5184,4.33537 31.5184,4.50204 34.5,5C 40.7026,8.82911 41.0359,13.1624 35.5,18C 25.4642,21.6316 20.9642,18.1316 22,7.5C 23.1451,6.36362 24.3117,5.36362 25.5,4.5 Z"/></g>
<g><path style="opacity:1" fill="#ebe9d9" d="M 63.5,5.5 C 65.337,5.63945 65.6704,6.30612 64.5,7.5C 63.7025,7.04311 63.3691,6.37644 63.5,5.5 Z"/></g>
<g><path style="opacity:1" fill="#dbe0df" d="M 68.5,8.5 C 74.3871,8.21258 76.0538,10.8792 73.5,16.5C 71.2351,17.6474 68.9018,17.8141 66.5,17C 65.6198,15.6439 65.2865,14.1439 65.5,12.5C 68.7973,12.6713 69.1306,12.0046 66.5,10.5C 67.2427,9.81815 67.9094,9.15149 68.5,8.5 Z"/></g>
<g><path style="opacity:1" fill="#e4e5da" d="M 76.5,8.5 C 79.2773,8.78633 82.1106,9.11966 85,9.5C 85.6667,11.8333 85.6667,14.1667 85,16.5C 83.9887,17.3366 82.8221,17.67 81.5,17.5C 81.838,14.9885 81.838,12.6552 81.5,10.5C 79.1507,12.2038 78.1507,14.5371 78.5,17.5C 77.5,17.5 76.5,17.5 75.5,17.5C 76.1587,14.5448 76.4921,11.5448 76.5,8.5 Z"/></g>
<g><path style="opacity:1" fill="#e5e8e3" d="M 100.5,8.5 C 103.916,7.86626 105.916,9.19959 106.5,12.5C 105.744,17.3385 103.078,18.6718 98.5,16.5C 96.8361,13.0901 97.5027,10.4234 100.5,8.5 Z"/></g>
<g><path style="opacity:1" fill="#2e5551" d="M 27.5,8.5 C 29.5273,8.33788 31.5273,8.50454 33.5,9C 34.0219,9.5613 34.3552,10.228 34.5,11C 32.3849,12.5711 30.2182,14.0711 28,15.5C 27.5034,13.1902 27.3367,10.8568 27.5,8.5 Z"/></g>
<g><path style="opacity:1" fill="#f0faf5" d="M 28.5,9.5 C 29.9778,9.23798 31.3112,9.57131 32.5,10.5C 31.8333,10.8333 31.1667,11.1667 30.5,11.5C 29.2867,11.2528 28.62,10.5862 28.5,9.5 Z"/></g>
<g><path style="opacity:1" fill="#e5eae3" d="M 60.5,13.5 C 57.3671,17.0778 53.3671,18.4111 48.5,17.5C 48.8436,13.7717 49.5102,10.1051 50.5,6.5C 57.4953,3.97982 60.8287,6.31315 60.5,13.5 Z"/></g>
<g><path style="opacity:1" fill="#1c473c" d="M 53.5,8.5 C 54.8333,8.5 56.1667,8.5 57.5,8.5C 58.5749,12.938 56.9083,14.938 52.5,14.5C 52.3253,12.3792 52.6586,10.3792 53.5,8.5 Z"/></g>
<g><path style="opacity:1" fill="#e5ece7" d="M 89.5,8.5 C 91.9729,9.30865 94.3063,9.64198 96.5,9.5C 95.8702,13.125 94.8702,16.625 93.5,20C 90.6213,20.8736 87.9546,20.5403 85.5,19C 87.5,18.6667 89.5,18.3333 91.5,18C 86.8166,17.6011 85.3166,15.1011 87,10.5C 87.9947,9.93406 88.828,9.26739 89.5,8.5 Z"/></g>
<g><path style="opacity:1" fill="#233d30" d="M 90.5,10.5 C 93.0628,11.9979 93.0628,13.6646 90.5,15.5C 89.3336,13.8327 89.3336,12.166 90.5,10.5 Z"/></g>
<g><path style="opacity:1" fill="#254748" d="M 101.5,10.5 C 102.995,10.4148 103.995,11.0815 104.5,12.5C 103.923,14.5499 102.59,15.5499 100.5,15.5C 100.366,13.7085 100.699,12.0418 101.5,10.5 Z"/></g>
<g><path style="opacity:1" fill="#2c3431" d="M 69.5,13.5 C 71.9752,13.7467 71.9752,14.4134 69.5,15.5C 68.537,15.0302 68.537,14.3635 69.5,13.5 Z"/></g>
<g><path style="opacity:1" fill="#d1dbdd" d="M 60.5,13.5 C 61.0652,11.6136 62.0652,9.94692 63.5,8.5C 64.842,12.2484 64.6753,15.9151 63,19.5C 61.1862,20.7596 59.3529,20.7596 57.5,19.5C 58.325,18.6143 59.325,18.281 60.5,18.5C 60.5,16.8333 60.5,15.1667 60.5,13.5 Z"/></g>
</svg>
