<?xml version="1.0" encoding="UTF-8"?>
<svg version="1.1" viewBox="0 0 2048 484" width="1280" height="1280" xmlns="http://www.w3.org/2000/svg">
<path transform="translate(0)" d="m0 0h2048v484h-2048z" fill="#FCFCFC"/>
<path transform="translate(0)" d="m0 0h494l1 3 1 149h66l10 1 1 77h18l34-1 21-3 21-6 20-8h2l-8-16-7-19-3-19v-14l3-21 6-18 8-15 11-12 8 6 14 12 10 11 11 16 8 16 7 21v2l20-4h29l19 4 13 5 15 8 2 2-1 5-6 11-7 10-9 10-10 8-12 7-17 7-16 4-16 2h-21l-6 12-11 24-7 13h29l19-3 16-6 11-6 8-7h2v6l6 9 9 6 19 7 15 4v1l-141 1-12 18-10 14-11 13-9 11-24 24-11 9-13 11-23 16-24 14-15 8-26 11-17 7-13 4-29 8-40 8-24 3-38 3h-370z" fill="#3C4F58"/>
<path transform="translate(0)" d="m0 0h403v76l-154 1v75l-41 1h-35v77l-66 2-1 20v39l-19-4-16-6-11-7-6-5-2 9-5 6-14 8-16 6-11 2 100 1 2 1 6 24 9 25 8 16 7 12 10 14 12 14 15 15 14 11 14 10 18 10 19 9 20 7 18 5 26 5 27 3 2 2h-333z" fill="#FCFCFC"/>
<path transform="translate(420,300)" d="m0 0h196l78 1-4 8-11 15-13 16-9 11-27 27-11 9-17 13-15 10-17 10-21 11-32 13-28 9-29 7-34 6-32 4-13 1h-41l-5-1-34-3-29-6-21-6-20-8-19-10-17-12-13-11-10-9-5-6 39-1 31-2 25-3 13-3 10-2 15-6 1-3-3-3-9 1-32 6-26 3-15 1h-59l-10-14-12-23-9-23-6-19-1-6 7-1z" fill="#0898C7"/>
<path transform="translate(1075,122)" d="m0 0h7l8 4 5 6 1 2v170l-3 15-6 18-6 11-9 12-6 7-11 9-13 8-19 8-12 3-7 1h-22l-17-3-17-6-15-8-13-10-6-5-13-17-8-16-5-16-2-12v-19l3-17 6-18 8-15 10-13 11-11 10-7 12-7 21-7 14-2h23l15 3 16 6 16 9 9 7 1-78 4-6 6-5z" fill="#3E5058"/>
<path transform="translate(699,93)" d="m0 0 4 2 17 17 9 12 8 13 6 16 2 11v16l16-6 20-4h25l17 4 14 5 3 3-5 9-9 11-11 10-16 8-15 5-15 3-8 1h-30l-10 24-9 19-9 16-5 1-21-7-12-6-8 6-16 7-18 4-11 1h-35l-27-3-22-5-14-5-10-6-3-3v-2l-10 8-15 8-16 5-20 3h-27l-22-4-19-7-13-8-5-4-7 6-12 6-21 6-17 3-27 2h-27l-22-3-17-5-11-6-4-4-5 2-12 6-17 5-21 3h-16v-49l505-1 21-3 22-6 16-6 21-11 4-5-7-7-8-14-5-12-4-18v-21l4-18 6-16z" fill="#07B2EF"/>
<path transform="translate(1217,186)" d="m0 0h11l16 2 16 5 16 8 12 8 12 11 11 14 8 15 6 17 3 18v14l-3 18-5 16-8 16-9 12-9 10-14 10-16 8-15 5-14 3h-25l-15-3-16-6-15-8-13-10-11-11-10-14-7-14-5-16-2-12v-17l3-18 5-15 10-19 11-14 8-8 14-10 16-8 16-5z" fill="#3D5059"/>
<path transform="translate(1789,186)" d="m0 0h17l19 3 17 6 17 9 10 8 7 6 9 11 7 12 1 3v10l-7 9-11 9-15 13-14 12-11 9-10 9-11 9-14 12-11 10-11 9-1 2 13 2h21l16-4 13-6h8l7 4 4 5 2 5v8l-5 8-11 7-12 5-16 4-7 1h-16l-15-2-18-5-17-8-12-9-11-11-11-15-9-17-6-20-1-6v-24l3-16 6-15 8-15 8-10 7-8 14-11 14-8 14-6 13-3z" fill="#3D5058"/>
<path transform="translate(624,301)" d="m0 0h70l-4 8-11 15-13 16-9 11-27 27-11 9-17 13-15 10-17 10-21 11-32 13-28 9-29 7-34 6-32 4-13 1h-41v-1l29-1-14-8-16-11-16-13-9-9-4-5v-3l3-1 22-1 47-6 29-6 29-8 29-10 31-13 24-11 23-12 27-16 22-14 19-13 7-6h2z" fill="#0887AF"/>
<path transform="translate(1565,123)" d="m0 0h10l8 5 4 6 1 4 1 110 54-54 10-6h8l6 3 5 6 3 7-1 8-7 9-70 70 1 4 12 11 61 61 4 8v7l-4 7-6 5-5 2-10-2-10-8-30-30-8-7-12-12-2-1 1 22v13l-2 14-7 8-5 2h-9l-7-4-5-6-1-3-1-150v-94l3-8 7-6z" fill="#3D5059"/>
<path transform="translate(1210,222)" d="m0 0h23l13 3 14 7 9 7 9 9 8 13 5 14 1 6v19l-3 14-5 12-7 11-9 9-14 8-14 5-11 2h-14l-15-3-12-5-10-7-10-9-9-13-5-12-2-9v-21l4-15 7-14 8-10 8-8 11-7 14-5z" fill="#FCFCFC"/>
<path transform="translate(986,222)" d="m0 0h13l15 3 16 8 13 11 8 11 6 12 4 16v16l-4 18-8 16-9 10-9 7-14 7-11 3-7 1h-13l-16-3-12-5-10-6-10-9-8-11-5-11-3-11-1-7v-11l4-18 8-17 10-12 12-9 11-5 11-3z" fill="#FCFCFC"/>
<path transform="translate(1442,186)" d="m0 0h22l17 3 16 6 11 7 4 6 1 3v8l-5 8-5 4-3 1h-8l-12-5-13-4-9-1h-10l-14 2-12 4-11 6-10 9-7 10-5 11-4 17-1 16 3 16 5 13 6 9 9 10 14 9 15 5 18 2 17-3 15-6 8-3 7 1 7 4 4 6 1 3v9l-4 6-6 5-14 7-17 5-15 2-19-1-18-4-16-7-12-7-10-8-13-13-8-13-6-12-5-17-2-13v-18l3-19 5-16 10-19 10-13 10-9 15-10 14-6 19-5z" fill="#3D5059"/>
<path transform="translate(2023,188)" d="m0 0h10l7 3 8 8v13l-8 9-6 2-21 3-12 4-11 6-13 12-7 9-5 12-3 12-1 11v88l-2 7-5 5-4 3-3 1h-8l-6-3-6-7-2-10v-87l2-18 4-15 8-17 7-10 9-10 9-8 10-7 15-8 18-6z" fill="#3D5059"/>
<path transform="translate(285,388)" d="m0 0h4l14 24 9 12 11 12 13 11 24 16 10 6v1h-35l-34-3-29-6-21-6-20-8-19-10-17-12-13-11-10-9-5-6 39-1 31-2 25-3 13-3z" fill="#C7D8E1"/>
<path transform="translate(1786,222)" d="m0 0h24l13 3 16 8 10 8 2 2v4l-9 7-14 12-10 9-11 9-15 13-11 9-15 13-17 14-4 1-6-8-6-12-4-17v-14l4-17 7-13 8-10 7-7 11-7 12-5z" fill="#FCFCFC"/>
<path transform="translate(781,170)" d="m0 0h25l17 4 14 5 3 3-5 9-9 11-11 10-16 8-15 5-15 3-8 1h-30l-10 24-9 19-9 16-5 1-21-7-12-6h-3l-1-5 5-5 9-6 11-11 5-6 4-4h2l2-4 7-7 7-9 10-13 14-15 7-7 3-4 2-2 16-5z" fill="#0798C7"/>
<path transform="translate(339,88)" d="m0 0h66l1 1v66l-3 1h-64l-1-1v-66z" fill="#07A1D7"/>
<path transform="translate(267,164)" d="m0 0h60l2 1v66l-38 1h-28l-1-1-1-56 1-10z" fill="#07A8E0"/>
<path transform="translate(262,88)" d="m0 0h67v67h-67z" fill="#0897C6"/>
<path transform="translate(507,164)" d="m0 0h52v66l-1 1h-65l-1-2v-63l1-1z" fill="#0798C6"/>
<path transform="translate(416,88)" d="m0 0h66v66l-1 1h-66v-38z" fill="#07ADE8"/>
<path transform="translate(458,164)" d="m0 0h21l3 1 1 65-1 1-24 1h-37l-5-1-1-3v-27l1-36z" fill="#07A7DE"/>
<path transform="translate(186,164)" d="m0 0h62l3 1 1 36v29l-1 1h-66v-66z" fill="#0895C3"/>
<path transform="translate(126,301)" d="m0 0h49v1h-23l12 27 10 17 9 12 9 11 12 11 6 4 21 1v1l-15 1h-59l-10-14-12-23-9-23-6-19-1-6z" fill="#0887AF"/>
<path transform="translate(339,166)" d="m0 0h8l-3 1v2l3 1h-2v24l-1 31h5l1-55 4 1v54h5l1-54 4-1 1 55 4 1v-42l1-13h4v55l5-1 1-39h1l2 17h1l1 22 5 1 1-56 3-1h8v-3h2l1 32v32l-1 1h-65l-1-1v-52z" fill="#07AAE3"/>
<path transform="translate(416,13)" d="m0 0h66v64l-5-1-1-1v-57h-5v55h-5v-55h-4l-1 55h-4v-55h-5v48l-1 6h-1l-1-5-3 4v-53l-4 1-1 53-4-2h-1v-52l-4 1-1 53h-4l-1-10v-43h-3l-2 54-5-2z" fill="#0DBEF3"/>
<path transform="translate(415,12)" d="m0 0h68v68h-48l-19-1-1-5v-38h1v35l4 1 2-53 2-1 2 1 1 53h4v-53l5-1 1 51 3 1 1-51 5-1 1 51 3-3h1l1-48h5l1 54h2l1-52 1-2h4l1 54h3l1-54h5l1 57 5 2v-64h-66l-1 3z" fill="#079ED2"/>
<path transform="translate(339,165)" d="m0 0h66v33h-1v-32h-2v3l-11 1v45l-1 11h-5l-1-1-1-20h-1l-1-10-1 30-1 1h-5v-55h-4l-1 55-5-1v-55l-4 1v54l-4 1-2-1v-54l-4-1v42l-1 13h-5v-31l1-24-1-3-5-1z" fill="#0896C3"/>
<path transform="translate(339,88)" d="m0 0h66v64l-5 1-3-3h2v-55h-4v24l-1 24-3-1-1 3v-51l-4 1-2 49-2-2-2 2v-49h-5v18l-1 35-1-4h-2l-1 2-1-13v-39l-5 1v54h-4l-1-54h-3l-2 52-1-2-3 1v-51h-5v5l-5 2-1 2z" fill="#07ACE6"/>
<path transform="translate(118,243)" d="m0 0h500v1h-472l3 30 2 13 4 2-21 3h-16z" fill="#0893C1"/>
<path transform="translate(262,165)" d="m0 0h4l1 5 1 56h15v-12l1-9 2-5 1-8h1l1 33h3l1-54h4v54l6 1v-51l1 2 3-1v50h16v-55l6 2v58l-38 1h-28l-1-1-1-56z" fill="#07AEEA"/>
<path transform="translate(262,88)" d="m0 0h67l-1 66h-7v-2h-13l-3-2h18v-57h-16v6h-3l-1 3v-9l-6 1v53l-1-2-3-1-1-50-3-1-2 52-2-4-2 1 1-49h-17v56l1 2-5 1-1-24z" fill="#07ADE8"/>
<path transform="translate(492,166)" d="m0 0h7v2l2 2-2 1-1 16v38l35 1v-50l3-1 2-4v54l17 1v-38h2l1-2v45h-65l-1-2z" fill="#07A9E2"/>
<path transform="translate(319,339)" d="m0 0h11l8 5 4 6 1 9-3 7-4 5-9 4h-9l-8-6-3-6v-11l5-8z" fill="#F6F8F9"/>
<path transform="translate(417,166)" d="m0 0h4l1 3v56h24l1-46 2 3v3h2l1 40 5 1v-55l2 2 2-1 1 53 16 1v4l-20 2h-37l-5-1 1-6 2-1v-10h-2z" fill="#07ACE7"/>
<path transform="translate(285,388)" d="m0 0h4l14 24 2 5-4 1-17-4-2-1v-6h-15v2l-9-1-17-5-3-3 2-3 7-2 15-2 13-3z" fill="#FCFCFC"/>
<path transform="translate(189,170)" d="m0 0h2v55l25 1v-17l1-20 3-2 1 1v38h6v-22l3 2v20l8-1h11l1-6h1v11h-65v-59z" fill="#07AFEB"/>
<path transform="translate(307,93)" d="m0 0h16v57h-15l-1-1v-36h1v35h5l-1-13v-25l1-16h-5v9h-1z" fill="#0796C4"/>
<path transform="translate(389,89)" d="m0 0h16v63l-5 1-3-3h2v-55h-4v24l-1 24-3-1-1 3v-47l1-4h2l-1-3z" fill="#0EC3F9"/>
<path transform="translate(691,321)" d="m0 0 2 2-1 4-10 13-11 13-11 12-17 17-11 9-13 11-23 16-19 11h-3l1-3 17-10 10-7 8-6 14-10 3-3h2l2-4 5-6 10-8 15-14 8-10 8-9 9-11z" fill="#22333B"/>
<path transform="translate(323,171)" d="m0 0 5 1v58h-7l-1-3-9 2-11-1-3-2h6v-51l1 2 3-1v50h16z" fill="#0DBFF5"/>
<path transform="translate(258,86)" d="m0 0h151l-1 2h-146v57l-3-3-1-3z" fill="#1C1C20"/>
<path transform="translate(321,344)" d="m0 0h6l2 9 7 1 1 1v6l-6 7-2 1h-10l-6-5-1-2v-10l3-5z" fill="#3B525C"/>
<path transform="translate(417,166)" d="m0 0h4l1 3v56l22 1 1 2-22 1-6 1-1-3 3-3v-10h-2z" fill="#0DBAEE"/>
<path transform="translate(375,171)" d="m0 0h4l1 2v52l-1 1h-5v-54z" fill="#3E4E56"/>
<path transform="translate(262,165)" d="m0 0h4l1 5 1 56h6l-2 2-9 2-2-44v-11z" fill="#0EC2F8"/>
<path transform="translate(182,162)" d="m0 0h68l2 2-66 1-1 57-2-3-1-3z" fill="#23292D"/>
<path transform="translate(511,171)" d="m0 0 2 1v54h-5l-1-22v-24l1-8z" fill="#3F4F57"/>
<path transform="translate(440,93)" d="m0 0h7l1 55 8 2v-11h1l1 9 1 4 5 1 17 1v1h-66v-38h1v37l12-2 18-1-5-1v-1h5v-55l-6 1z" fill="#0890BC"/>
<path transform="translate(345,171)" d="m0 0h5v41l-1 13h-5v-31z" fill="#3E4E56"/>
<path transform="translate(212,171)" d="m0 0h4l1 23v15l-1 17h-5v-52z" fill="#3D4D55"/>
<path transform="translate(278,94)" d="m0 0h5v55h-5l-1-1z" fill="#2A3237"/>
<path transform="translate(267,94)" d="m0 0h5l1 1-1 54h-5z" fill="#3F4F57"/>
<path transform="translate(223,170)" d="m0 0 3 1v55h-5v-54z" fill="#283135"/>
<path transform="translate(385,171)" d="m0 0h5v55h-5l-1-2z" fill="#23292D"/>
<path transform="translate(521,170)" d="m0 0 2 1v55h-5v-55z" fill="#23292D"/>
<path transform="translate(530,170)" d="m0 0 3 1v55l-5-1v-54z" fill="#2B3439"/>
<path transform="translate(289,93)" d="m0 0 4 1v55h-5v-53z" fill="#262B30"/>
<path transform="translate(441,94)" d="m0 0h5v55h-5z" fill="#262E32"/>
<path transform="translate(395,171)" d="m0 0 5 1v53l-4 1-2-2z" fill="#23292D"/>
<path transform="translate(442,18)" d="m0 0h4v54l-5 1v-54z" fill="#2B353A"/>
<path transform="translate(551,170)" d="m0 0 3 1v54h-5v-54z" fill="#3E4E56"/>
<path transform="translate(493,166)" d="m0 0h6v2l2 2-2 1-1 16v40l-5-1z" fill="#0DBFF5"/>
<path transform="translate(397,94)" d="m0 0 3 1v53l-1 1h-5l1-54z" fill="#2A3338"/>
<path transform="translate(242,171)" d="m0 0h4l1 54h-6v-53z" fill="#3B4A52"/>
<path transform="translate(201,172)" d="m0 0h5v54h-5z" fill="#3E4D55"/>
<path transform="translate(441,172)" d="m0 0h5v54l-5-1z" fill="#23292D"/>
<path transform="translate(319,171)" d="m0 0 4 1v53h-6l1-52z" fill="#3F4F57"/>
<path transform="translate(455,93)" d="m0 0h1l1 17v29l-1 11-5-1 1-55z" fill="#222529"/>
<path transform="translate(386,94)" d="m0 0h4v46l-1 9h-4v-54z" fill="#262B2F"/>
<path transform="translate(319,94)" d="m0 0h4v55l-5-1v-47z" fill="#3E4E56"/>
<path transform="translate(423,93)" d="m0 0h3v56h-5v-41l1-14z" fill="#222529"/>
<path transform="translate(345,95)" d="m0 0h5v45l-1 9h-4z" fill="#2C353A"/>
<path transform="translate(537,171)" d="m0 0h1v54l3 1h-8v-50l3-1z" fill="#0898C7"/>
<path transform="translate(191,171)" d="m0 0h4v55l-5-1v-38z" fill="#272E33"/>
<path transform="translate(498,171)" d="m0 0h4v55l-5-1v-38z" fill="#2C353B"/>
<path transform="translate(355,171)" d="m0 0h4l1 39v15l-4 1-2-1v-24z" fill="#212427"/>
<path transform="translate(308,94)" d="m0 0h5v54h-5l-1-45z" fill="#272E33"/>
<path transform="translate(115,327)" d="m0 0 4 2 4 13 3 7 13 26 11 17 1 3-4-2-10-14-10-17-7-16-5-14z" fill="#23353D"/>
<path transform="translate(196,172)" d="m0 0h4v54h-5v-36z" fill="#0897C5"/>
<path transform="translate(467,19)" d="m0 0h4v54h-5v-36z" fill="#0FC5FB"/>
<path transform="translate(538,171)" d="m0 0h5v55l-5-1z" fill="#3F4F57"/>
<path transform="translate(434,93)" d="m0 0 2 2v54h-6l1-55z" fill="#283034"/>
<path transform="translate(370,171)" d="m0 0h4v55h-1v-5h-2l-1 5h-1v-42z" fill="#0898C7"/>
<path transform="translate(375,95)" d="m0 0h5l-1 54h-4l-1-22v-14z" fill="#252C31"/>
<path transform="translate(427,19)" d="m0 0h4v53h-4l-1-10v-28z" fill="#0EC4FA"/>
<path transform="translate(303,175)" d="m0 0 1 2 3-1v50h13l-4 2-5 1-11-1-3-2h6z" fill="#0EC4FA"/>
<path transform="translate(365,171)" d="m0 0h4v55l-5-1v-30z" fill="#283035"/>
<path transform="translate(472,172)" d="m0 0h4l1 53h-6v-46z" fill="#283034"/>
<path transform="translate(233,170)" d="m0 0h2l1 2v54h-5v-54z" fill="#283035"/>
<path transform="translate(299,93)" d="m0 0h3l1 55-5 1v-55z" fill="#242A2E"/>
<path transform="translate(427,171)" d="m0 0 4 2v50l-4 1-1-16v-24z" fill="#0EC4FA"/>
<path transform="translate(426,93)" d="m0 0h1l1 51h1v-51h5l-3 1v54l5 1 1-7 2-4 1-42h1v54h-20v-1h5z" fill="#0898C7"/>
<path transform="translate(467,171)" d="m0 0 4 1 1 28v24h-5z" fill="#0EBEF3"/>
<path transform="translate(472,94)" d="m0 0h4v55h-5z" fill="#23292D"/>
<path transform="translate(423,18)" d="m0 0 3 1v54h-4l-1-11 1-43z" fill="#212427"/>
<path transform="translate(258,86)" d="m0 0h5l-1 59-3-3-1-3z" fill="#23282C"/>
<path transform="translate(278,172)" d="m0 0h4l1 23v14l-1 16h-4z" fill="#272E33"/>
<path transform="translate(452,18)" d="m0 0h4v55l-5-1z" fill="#1E2024"/>
<path transform="translate(452,171)" d="m0 0h4v55l-5-1z" fill="#1D1F22"/>
<path transform="translate(350,95)" d="m0 0h4l1 5v20l-1 27-1-2-3 1z" fill="#0EC4FA"/>
<path transform="translate(339,166)" d="m0 0h8l-3 1v2l3 1h-2v24l-2 8h-2v12l-2 1z" fill="#07AEEA"/>
<path transform="translate(462,94)" d="m0 0h4v55h-4z" fill="#1C1D20"/>
<path transform="translate(462,18)" d="m0 0h4v55h-4z" fill="#23282C"/>
<path transform="translate(366,94)" d="m0 0h3v55h-4v-54z" fill="#272F33"/>
<path transform="translate(356,94)" d="m0 0h3v55h-4v-54z" fill="#1C1D20"/>
<path transform="translate(299,171)" d="m0 0h3v55l-4-1v-53z" fill="#242B2F"/>
<path transform="translate(360,94)" d="m0 0h4v55h-4z" fill="#0FC5FB"/>
<path transform="translate(432,18)" d="m0 0 3 1v54l-4-1v-53z" fill="#293035"/>
<path transform="translate(422,171)" d="m0 0h4v54h-4z" fill="#1F2226"/>
<path transform="translate(472,19)" d="m0 0h4v54h-4z" fill="#22282C"/>
<path transform="translate(463,171)" d="m0 0h3v54h-4v-53z" fill="#21272A"/>
<path transform="translate(308,172)" d="m0 0h4v53h-5z" fill="#252D31"/>
<path transform="translate(431,172)" d="m0 0h4v53h-4z" fill="#293136"/>
<path transform="translate(267,93)" d="m0 0h17v42h-1v-41h-5l-1 41h-1l-1-10-1 9h-1l-1-39-5-1z" fill="#0897C6"/>
<path transform="translate(293,171)" d="m0 0h4v54l-4-1z" fill="#0FC5FB"/>
<path transform="translate(362,170)" d="m0 0h2l1 52h-2v-3l-3 1v-49z" fill="#0DC0F6"/>
<path transform="translate(268,172)" d="m0 0h4v46l-1 7-4-1z" fill="#36434A"/>
<path transform="translate(265,95)" d="m0 0h1l1 13v41l1 2-5 1v-56z" fill="#0FC5FB"/>
<path transform="translate(268,171)" d="m0 0h5v37l3 1 1-37h1v53h4v-16h1v17h-15l3-1 1-53z" fill="#0894C2"/>
<path transform="translate(289,171)" d="m0 0h3l1 54-4 1-1-1v-28z" fill="#22262A"/>
<path transform="translate(350,170)" d="m0 0 4 1v50h-3l-1 2z" fill="#07B3F1"/>
<path transform="translate(436,19)" d="m0 0h1v14h3l1-3v42l-4-2h-1z" fill="#0FC5FB"/>
<path transform="translate(548,171)" d="m0 0h1v54h5v-44h3l1-10h1v59h-1l-1-42h-2v38h-12l1-4h3z" fill="#0898C7"/>
<path transform="translate(373,96)" d="m0 0h1v52l-1-4h-2l-1 2-1-13v-16l1-16 2 1z" fill="#0FC5FB"/>
<path transform="translate(457,171)" d="m0 0 2 2 2-1v50l-1-2h-2l-1 3z" fill="#07B3F1"/>
<path transform="translate(293,97)" d="m0 0h3 1v50l-1-2-3-1z" fill="#0FC5FB"/>
<path transform="translate(272,101)" d="m0 0h1l1 24 2-1 1-19h1v43l5 1v1h-19v-1h8z" fill="#0891BD"/>
<path transform="translate(571,428)" d="m0 0m-2 1 3 1v2l-15 8-26 11-5 2-3-1 7-5 24-11z" fill="#232F35"/>
<path transform="translate(477,35)" d="m0 0 2 4 2 5 1 10v23l-5-1-1-3z" fill="#0FC5FB"/>
<path transform="translate(218,451)" d="m0 0 5 1 11 5 38 12 4 4-10-1-21-7-20-9-7-4z" fill="#223138"/>
<path transform="translate(414,11)" d="m0 0h70v17h-1v-16h-68l1 4v20l-1 25h-1l-1-17v-15z" fill="#24292E"/>
<path transform="translate(837,201)" d="m0 0 3 1-2 5-8 8-13 9-16 8-8 3h-7l3-2 19-7 6-4 5-3 10-9z" fill="#213942"/>
<path transform="translate(218,441)" d="m0 0 5 1 15 7 19 7 23 6 2 1v2l-9-1-15-4-17-6-23-12z" fill="#253B45"/>
<path transform="translate(182,162)" d="m0 0h68l2 2-66 1-1 3h-3z" fill="#212529"/>
<path transform="translate(174,153)" d="m0 0 3 1-1 19 1 27-2 29h-1z" fill="#23292D"/>
<path transform="translate(447,179)" d="m0 0 2 3v3h2v37l-1-4h-2l-1 3z" fill="#0EC4FA"/>
<path transform="translate(391,172)" d="m0 0h3v48l-4-1z" fill="#0FC5FB"/>
<path transform="translate(462,93)" d="m0 0h5l1 52 3 2v2h5v1h-15v-56zm0 1v55h4v-55z" fill="#0890BB"/>
<path transform="translate(404)" d="m0 0 2 3v32l1 6v13l-2 20h-1z" fill="#23292D"/>
<path transform="translate(470,96)" d="m0 0h1v51l-4-1v-28h3l-1-12z" fill="#0DC2F9"/>
<path transform="translate(107,231)" d="m0 0h66v1l-6 1-59 1v7h-1z" fill="#252B2F"/>
<path transform="translate(378,190)" d="m0 0h1v36h-5l1-34 2 2z" fill="#242A2E"/>
<path transform="translate(476,19)" d="m0 0h1v8l5-1v28h-1l-2-13-1-2-1 34h-1z" fill="#07A7DF"/>
<path transform="translate(441,172)" d="m0 0h5v20h-3l-1 33h-1z" fill="#3D4C54"/>
<path transform="translate(386,94)" d="m0 0 4 1h-2v29h-1v19l2 3v3h-4v-54z" fill="#232A2E"/>
<path transform="translate(163,395)" d="m0 0 17 1 46 1v1l-20 1-40 1z" fill="#0890BC"/>
<path transform="translate(201,172)" d="m0 0h5l-1 5-2 1v18l1 14h1v13l-4 2z" fill="#22282C"/>
<path transform="translate(322,101)" d="m0 0h1v48l-4-1v-21h2z" fill="#23292D"/>
<path transform="translate(267,94)" d="m0 0h2l1 4-1 49 2 1-4 1z" fill="#2E383D"/>
<path transform="translate(521,170)" d="m0 0 2 1v23h-1l-1-10h-2v41l4 1h-5v-55z" fill="#3E4E56"/>
<path transform="translate(343,196)" d="m0 0h1v29h5v-13h1l1 9h3v4l2 1h-13l-1-5 1-5-3-1v-11l1-2h2z" fill="#0899C8"/>
<path transform="translate(321,171)" d="m0 0 2 1v53l-3-1h2l-2-6v-46z" fill="#252C30"/>
<path transform="translate(398,108)" d="m0 0h1v41h-3v-35h1z" fill="#1B1B1E"/>
<path transform="translate(538,171)" d="m0 0h4v2l-2 1v51h-2z" fill="#23292D"/>
<path transform="translate(452,18)" d="m0 0h4l-1 32-2 1-1-4z" fill="#23282C"/>
<path transform="translate(526,162)" d="m0 0h36l1 4-3 1v-3h-58v-1z" fill="#202529"/>
<path transform="translate(464,34)" d="m0 0h1v38h-3v-27l1-10z" fill="#1B1B1E"/>
<path transform="translate(452,174)" d="m0 0h2l1 9v28l-2 2-1-2z" fill="#272F34"/>
<path transform="translate(189,175)" d="m0 0h1l1 50 12 1 1 2h-14l-1-1-1-21v-20z" fill="#0EC3F9"/>
<path transform="translate(463,171)" d="m0 0h3v31h-1l-1-6-2 1v-25z" fill="#2A3237"/>
<path transform="translate(741,124)" d="m0 0 4 4 7 16 3 9-1 7-2-3-6-16-1-7-4-8z" fill="#22363F"/>
<path transform="translate(380,106)" d="m0 0h1l1 6v16h2v16l-2-2-2 2z" fill="#0FC5FB"/>
<path transform="translate(442,18)" d="m0 0h4v54h-1l-1-33h-1v-18z" fill="#3C4B53"/>
<path transform="translate(346,171)" d="m0 0h4v41l-1 9h-1l-1-48z" fill="#2F393F"/>
<path transform="translate(308,94)" d="m0 0h5v16l-1 7h-3z" fill="#3F4F57"/>
<path transform="translate(460,196)" d="m0 0h1v26l-1-2h-2l-1 3v-26l2 3z" fill="#0FC5FB"/>
<path transform="translate(152,397)" d="m0 0h2l8 10 13 13 11 9 10 7-3 1-14-11-12-11-12-12-3-4z" fill="#283F49"/>
<path transform="translate(308,171)" d="m0 0h5l1 50 4 2v1l5 1v1h-16v-1h5v-53z" fill="#088DB8"/>
<path transform="translate(440,96)" d="m0 0h1v54h-5v-6l2-6h1z" fill="#0899C8"/>
<path transform="translate(278,172)" d="m0 0 3 1v33l-2-4-1-7z" fill="#3E4D55"/>
<path transform="translate(478,59)" d="m0 0 4 1v17l-5-1-1-3 1-12z" fill="#07B3F1"/>
<path transform="translate(472,19)" d="m0 0h4v23l-2-3h-2z" fill="#23292D"/>
<path transform="translate(264,129)" d="m0 0 2 1 1 6v13l1 2-5 1v-22z" fill="#07B3F1"/>
<path transform="translate(544,441)" d="m0 0m-3 1h7v2l-22 9-3-1 7-5z" fill="#20353E"/>
<path transform="translate(420,223)" d="m0 0 1 3 9-1 14 1 1 2-22 1-6 1-1-3z" fill="#0EC4FA"/>
<path transform="translate(548,171)" d="m0 0h1v54h5v1h-11l1-4h3z" fill="#0887AF"/>
<path transform="translate(285,388)" d="m0 0h4v2l-16 4-6 1h-12v-1l27-5z" fill="#B8D6E1"/>
<path transform="translate(223,170)" d="m0 0h2v31h-1l-1-11-1-1v-18z" fill="#1C1D20"/>
<path transform="translate(440,17)" d="m0 0h6l-4 2-1 11-1 3h-3l-1-15z" fill="#07B2F0"/>
<path transform="translate(278,94)" d="m0 0h5v4h-2v14l-2 2-1-2z" fill="#3F4F57"/>
<path transform="translate(287,192)" d="m0 0h1v27l-2-1-2-4v-9l2-5z" fill="#0FC5FB"/>
<path transform="translate(699,93)" d="m0 0 4 2 4 5-6-1-6 9-1 2h-2l1-5z" fill="#0794C2"/>
<path transform="translate(594,414)" d="m0 0m-1 1m-1 1m-2 1 2 1-1 3-14 8h-3l1-3z" fill="#213239"/>
<path transform="translate(699,78)" d="m0 0 2 1 2 5 2 3-6-1-5 5-2-6z" fill="#252D32"/>
<path transform="translate(814,222)" d="m0 0m-2 1h2v3l-18 8-3 1h-7l3-2 19-7z" fill="#24404B"/>
<path transform="translate(452,211)" d="m0 0h3 1v15l-5-1z" fill="#202327"/>
<path transform="translate(215,201)" d="m0 0h1v24l-2-3-2 1v-14l2 1z" fill="#23292D"/>
<path transform="translate(375,95)" d="m0 0h5v10h-1l-1 10h-2z" fill="#3E4E56"/>
<path transform="translate(196,172)" d="m0 0h4v14l-4 1z" fill="#07B3F1"/>
<path transform="translate(273,106)" d="m0 0h1l1 14 1-6h1v21h-1l-1-10-1 9h-1z" fill="#07B3F1"/>
<path transform="translate(308,172)" d="m0 0h4v13l-1 5h-2z" fill="#3C4C53"/>
<path transform="translate(462,94)" d="m0 0h4v8l-1 5h-1l-1 8h-1z" fill="#1B1B1E"/>
<path transform="translate(707,99)" d="m0 0 4 2 5 4v2l3 1 9 12-1 2-12-14-8-8z" fill="#22272B"/>
<path transform="translate(385,171)" d="m0 0h2l1 2v11l-1 1-1 11h-1z" fill="#3F4F57"/>
<path transform="translate(349,212)" d="m0 0h1l1 9h3v4l2 1h-13l-1-5 2-4v8h5z" fill="#088DB8"/>
<path transform="translate(370,171)" d="m0 0h4v10l-3 1-1 2z" fill="#07B3F1"/>
<path transform="translate(455,93)" d="m0 0 1 2-1 13-2 3-1-5v-12z" fill="#23292D"/>
<path transform="translate(332,355)" d="m0 0h5v6l-2 3-3-1-1-7z" fill="#282F34"/>
<path transform="translate(554,170)" d="m0 0h4v12l-4-1z" fill="#07B3F1"/>
<path transform="translate(303,225)" d="m0 0 17 1-4 2-5 1-11-1-3-2z" fill="#0FC5FB"/>
<path transform="translate(201,172)" d="m0 0h5l-1 5-2 1-1 18h-1z" fill="#23292D"/>
<path transform="translate(465,102)" d="m0 0h1v25h-1l-1-12h-1v-11z" fill="#22282C"/>
<path transform="translate(339,91)" d="m0 0 5 5v5l-4 1-1 2z" fill="#0FC5FB"/>
<path transform="translate(242,214)" d="m0 0 4 1 1 10h-5z" fill="#2D373C"/>
<path transform="translate(174,153)" d="m0 0 3 1-1 18-2 1z" fill="#22282C"/>
<path transform="translate(275,375)" d="m0 0h9l5 1v1l-10 2h-5l-1-3z" fill="#0887AF"/>
<path transform="translate(467,95)" d="m0 0h1l1 15 1 1v7h-3z" fill="#0CB4E8"/>
<path transform="translate(462,226)" d="m0 0h16v4l-5-1-11-2z" fill="#0FC5FB"/>
<path transform="translate(270,391)" d="m0 0 4 1-1 2-6 1h-12v-1z" fill="#A3CEDE"/>
<path transform="translate(428,144)" d="m0 0h3v4l5 1v1h-15v-1h5v-4z" fill="#0892BE"/>
<path transform="translate(530,170)" d="m0 0h2v23h-1l-1-16-1-1v-5z" fill="#1D1D21"/>
<path transform="translate(389,207)" d="m0 0h1v19h-5l1-5h2z" fill="#3F4F57"/>
<path transform="translate(463,171)" d="m0 0h3v7l-1 5-1-4h-2v-7z" fill="#1F2124"/>
<path transform="translate(722,99)" d="m0 0 4 2 10 13-1 3-8-11-5-5z" fill="#24404A"/>
<path transform="translate(358,463)" d="m0 0 5 2 7 4v1h-8l-2-2h2v-2l-4-2z" fill="#F8F9FA"/>
<path transform="translate(520,452)" d="m0 0h2l-1 3-7 3-8 1 1-2z" fill="#29414B"/>
<path transform="translate(386,94)" d="m0 0 4 1h-2l-1 3-1 21h-1v-24z" fill="#3B4A51"/>
<path transform="translate(265,95)" d="m0 0h1v11l-3 1v-11z" fill="#0EC3FA"/>
<path transform="translate(481,69)" d="m0 0h1v8l-5-1v-4z" fill="#0FC5FB"/>
<path transform="translate(473,29)" d="m0 0h3v13l-3-3z" fill="#3F4F57"/>
<path transform="translate(828,199)" d="m0 0 1 2 2 1-6 5h-3l2-4z" fill="#2D363C"/>
<path transform="translate(457,171)" d="m0 0 2 2 2-1v10l-2-3-2 3z" fill="#0FC5FB"/>
<path transform="translate(798,230)" d="m0 0h3v2l-8 3h-7l3-2z" fill="#21424F"/>
<path transform="translate(533,446)" d="m0 0m-3 1h3v3l-7 3-3-1z" fill="#242F35"/>
<path transform="translate(620,396)" d="m0 0m-1 1 2 1-2 4-3 2h-3l2-4z" fill="#20323B"/>
<path transform="translate(445,214)" d="m0 0h1v12l-4-1 1-6h2z" fill="#3F4F57"/>
<path transform="translate(282,463)" d="m0 0 10 2 1 2-11-1z" fill="#244B5A"/>
</svg>
