<?xml version="1.0" encoding="UTF-8"?>
<!DOCTYPE svg PUBLIC "-//W3C//DTD SVG 1.1//EN" "http://www.w3.org/Graphics/SVG/1.1/DTD/svg11.dtd">
<svg xmlns="http://www.w3.org/2000/svg" version="1.1" width="148px" height="28px" style="shape-rendering:geometricPrecision; text-rendering:geometricPrecision; image-rendering:optimizeQuality; fill-rule:evenodd; clip-rule:evenodd" xmlns:xlink="http://www.w3.org/1999/xlink">
<g><path style="opacity:1" fill="#fdfdfe" d="M -0.5,-0.5 C 48.8333,-0.5 98.1667,-0.5 147.5,-0.5C 147.5,8.83333 147.5,18.1667 147.5,27.5C 98.1667,27.5 48.8333,27.5 -0.5,27.5C -0.5,18.1667 -0.5,8.83333 -0.5,-0.5 Z"/></g>
<g><path style="opacity:1" fill="#3498e7" d="M 58.5,4.5 C 66.3483,2.96318 69.515,5.96318 68,13.5C 64.9597,16.9663 61.1264,18.2996 56.5,17.5C 56.9088,13.1235 57.5755,8.79017 58.5,4.5 Z"/></g>
<g><path style="opacity:1" fill="#f2f9fc" d="M 60.5,7.5 C 62.1667,7.5 63.8333,7.5 65.5,7.5C 66.3234,12.3394 64.3234,14.6728 59.5,14.5C 59.448,12.0971 59.7814,9.76375 60.5,7.5 Z"/></g>
<g><path style="opacity:1" fill="#359be8" d="M 93.5,4.5 C 94.5,4.5 95.5,4.5 96.5,4.5C 95.9862,6.51162 95.8195,8.51162 96,10.5C 97.2633,8.20309 99.0966,7.36976 101.5,8C 100.101,9.06164 99.1007,10.395 98.5,12C 99.7741,18.3338 98.7741,18.8338 95.5,13.5C 94.1476,14.5175 93.1476,15.8508 92.5,17.5C 92.1667,16.3333 91.8333,15.1667 91.5,14C 92.3222,10.8594 92.9888,7.69273 93.5,4.5 Z"/></g>
<g><path style="opacity:1" fill="#2796e6" d="M 43.5,16.5 C 38.9635,17.4246 34.2968,17.4246 29.5,16.5C 28.8333,16.6667 28.1667,16.8333 27.5,17C 28.3805,17.7083 29.0472,18.5416 29.5,19.5C 28.1667,19.5 26.8333,19.5 25.5,19.5C 25.67,18.1779 25.3366,17.0113 24.5,16C 25.7659,15.6905 26.9326,15.1905 28,14.5C 29.0177,15.7059 29.5177,15.3726 29.5,13.5C 29.2395,11.8129 28.5728,10.3129 27.5,9C 29.4083,5.92746 32.0749,3.76079 35.5,2.5C 36.931,2.97665 38.2643,3.64331 39.5,4.5C 40.0244,6.45313 41.0244,8.1198 42.5,9.5C 40.9137,11.1727 40.2471,13.1727 40.5,15.5C 41.8221,15.67 42.9887,15.3366 44,14.5C 46.1676,15.8224 46.0009,16.4891 43.5,16.5 Z"/></g>
<g><path style="opacity:1" fill="#cbdef3" d="M 32.5,5.5 C 35.0728,5.14849 37.4062,5.64849 39.5,7C 37.1261,6.59764 34.7928,6.7643 32.5,7.5C 31.537,7.03017 31.537,6.3635 32.5,5.5 Z"/></g>
<g><path style="opacity:1" fill="#4c9de8" d="M 72.5,7.5 C 78.0001,6.83142 80.1667,9.16475 79,14.5C 76.3742,18.0719 73.3742,18.4052 70,15.5C 69.0182,12.2253 69.8515,9.55863 72.5,7.5 Z"/></g>
<g><path style="opacity:1" fill="#edf6fb" d="M 73.5,9.5 C 74.5,9.5 75.5,9.5 76.5,9.5C 77.4015,13.2407 76.0681,15.2407 72.5,15.5C 72.3253,13.3792 72.6586,11.3792 73.5,9.5 Z"/></g>
<g><path style="opacity:1" fill="#45a0e9" d="M 111.5,13.5 C 109.143,13.3367 106.81,13.5034 104.5,14C 106.5,14.6667 108.5,15.3333 110.5,16C 106.154,18.5056 103.154,17.5056 101.5,13C 101.813,9.68927 103.647,8.18927 107,8.5C 110.759,8.09298 112.259,9.75965 111.5,13.5 Z"/></g>
<g><path style="opacity:1" fill="#eef8fb" d="M 105.5,9.5 C 106.756,9.46141 107.756,9.96141 108.5,11C 107.167,11.6667 105.833,11.6667 104.5,11C 105.056,10.6174 105.389,10.1174 105.5,9.5 Z"/></g>
<g><path style="opacity:1" fill="#559fe8" d="M 111.5,13.5 C 112.224,11.7816 112.891,9.94828 113.5,8C 115.471,7.98558 117.471,8.31891 119.5,9C 115.045,10.0626 113.379,12.896 114.5,17.5C 113.5,17.5 112.5,17.5 111.5,17.5C 111.5,16.1667 111.5,14.8333 111.5,13.5 Z"/></g>
<g><path style="opacity:1" fill="#339ee9" d="M 84.5,7.5 C 87.0217,7.12807 89.0217,7.96141 90.5,10C 88.555,9.87182 86.7216,10.0385 85,10.5C 83.9904,15.0946 85.157,16.0946 88.5,13.5C 89.2811,15.7653 88.2811,17.0986 85.5,17.5C 82.8406,17.5021 81.5072,16.1687 81.5,13.5C 81.6284,11.0452 82.6284,9.0452 84.5,7.5 Z"/></g>
<g><path style="opacity:1" fill="#6cb0ea" d="M 43.5,16.5 C 44.0906,17.1515 44.7573,17.8182 45.5,18.5C 40.2079,19.4948 34.8746,19.8282 29.5,19.5C 29.0472,18.5416 28.3805,17.7083 27.5,17C 28.1667,16.8333 28.8333,16.6667 29.5,16.5C 34.2968,17.4246 38.9635,17.4246 43.5,16.5 Z"/></g>
</svg>
