<?xml version="1.0" encoding="UTF-8"?>
<svg version="1.1" xmlns="http://www.w3.org/2000/svg" width="80" height="28">
<path d="M0 0 C26.4 0 52.8 0 80 0 C80 9.24 80 18.48 80 28 C53.6 28 27.2 28 0 28 C0 18.76 0 9.52 0 0 Z " fill="#E34B24" transform="translate(0,0)"/>
<path d="M0 0 C7.26 0 14.52 0 22 0 C22 9.24 22 18.48 22 28 C16.78534343 28.04589918 11.57138704 28.08572787 6.35668945 28.10986328 C4.58257676 28.11992411 2.80848065 28.13357422 1.03442383 28.15087891 C-1.51485284 28.17512378 -4.06391037 28.18648218 -6.61328125 28.1953125 C-7.80405022 28.21079636 -7.80405022 28.21079636 -9.01887512 28.22659302 C-12.88223043 28.2273811 -14.70839446 28.19440369 -18 26 C-18 25.34 -18 24.68 -18 24 C-24.93 23.505 -24.93 23.505 -32 23 C-32.33 21.35 -32.66 19.7 -33 18 C-30.69 18 -28.38 18 -26 18 C-26 18.66 -26 19.32 -26 20 C-23.89590361 20.02701408 -21.79170822 20.04640223 -19.6875 20.0625 C-18.51574219 20.07410156 -17.34398437 20.08570312 -16.13671875 20.09765625 C-12.96940805 20.14899898 -12.96940805 20.14899898 -10 19 C-9.67 18.34 -9.34 17.68 -9 17 C-17.25 17 -25.5 17 -34 17 C-36 12 -36 12 -36 9 C-30.06 9 -24.12 9 -18 9 C-18 8.34 -18 7.68 -18 7 C-10.41 7 -2.82 7 5 7 C2.34210526 20.28947368 2.34210526 20.28947368 1 24 C0.01 24.33 -0.98 24.66 -2 25 C0.31 25.33 2.62 25.66 5 26 C5.27714844 24.73542969 5.55429687 23.47085937 5.83984375 22.16796875 C6.20564498 20.50779395 6.57153502 18.84763871 6.9375 17.1875 C7.11990234 16.35412109 7.30230469 15.52074219 7.49023438 14.66210938 C7.66748047 13.85966797 7.84472656 13.05722656 8.02734375 12.23046875 C8.18968506 11.49207764 8.35202637 10.75368652 8.51928711 9.99291992 C9 8 9 8 10 5 C8.35 5 6.7 5 5 5 C5 4.01 5 3.02 5 2 C3.35 2 1.7 2 0 2 C0 1.34 0 0.68 0 0 Z " fill="#EE6C39" transform="translate(58,0)"/>
<path d="M0 0 C7.92 0 15.84 0 24 0 C24 1.32 24 2.64 24 4 C24.66 4.33 25.32 4.66 26 5 C21.38 5 16.76 5 12 5 C12.3609375 6.34835938 12.721875 7.69671875 13.09375 9.0859375 C13.56262937 10.84892393 14.03137231 12.61194665 14.5 14.375 C14.73847656 15.26445312 14.97695312 16.15390625 15.22265625 17.0703125 C15.44824219 17.92109375 15.67382812 18.771875 15.90625 19.6484375 C16.11572266 20.43395996 16.32519531 21.21948242 16.54101562 22.02880859 C17 24 17 24 17 26 C23.6 26.33 30.2 26.66 37 27 C37 27.33 37 27.66 37 28 C24.79 28 12.58 28 0 28 C0 18.76 0 9.52 0 0 Z " fill="#F6F4F4" transform="translate(0,0)"/>
<path d="M0 0 C7.26 0 14.52 0 22 0 C22 9.24 22 18.48 22 28 C9.79 28 -2.42 28 -15 28 C-15 27.67 -15 27.34 -15 27 C-5.1 26.505 -5.1 26.505 5 26 C6.27313324 20.21169221 6.27313324 20.21169221 7.54272461 14.42260742 C7.78261108 13.33749878 7.78261108 13.33749878 8.02734375 12.23046875 C8.18968506 11.49207764 8.35202637 10.75368652 8.51928711 9.99291992 C9 8 9 8 10 5 C8.35 5 6.7 5 5 5 C5 4.01 5 3.02 5 2 C3.35 2 1.7 2 0 2 C0 1.34 0 0.68 0 0 Z " fill="#FEFCFC" transform="translate(58,0)"/>
<path d="M0 0 C11.22 0 22.44 0 34 0 C34 0.66 34 1.32 34 2 C25.09 2 16.18 2 7 2 C7.33 2.66 7.66 3.32 8 4 C16.25 4.33 24.5 4.66 33 5 C32.67 7.31 32.34 9.62 32 12 C28.65613602 13.01085428 25.6251882 13.11543463 22.140625 13.09765625 C21.02558594 13.09443359 19.91054688 13.09121094 18.76171875 13.08789062 C17.60285156 13.07951172 16.44398437 13.07113281 15.25 13.0625 C14.07566406 13.05798828 12.90132812 13.05347656 11.69140625 13.04882812 C8.79421928 13.03705094 5.89713546 13.02060326 3 13 C2.67 11.35 2.34 9.7 2 8 C4.31 8 6.62 8 9 8 C9 8.66 9 9.32 9 10 C11.10409639 10.02701408 13.20829178 10.04640223 15.3125 10.0625 C17.07013672 10.07990234 17.07013672 10.07990234 18.86328125 10.09765625 C22.03059195 10.14899898 22.03059195 10.14899898 25 9 C25.33 8.34 25.66 7.68 26 7 C17.75 7 9.5 7 1 7 C0.67 4.69 0.34 2.38 0 0 Z " fill="#F7FAFB" transform="translate(23,10)"/>
<path d="M0 0 C1.12563103 0.00212242 1.12563103 0.00212242 2.27400208 0.00428772 C4.66838585 0.00988065 7.06267578 0.02243181 9.45703125 0.03515625 C11.08137886 0.04017217 12.70572793 0.04473491 14.33007812 0.04882812 C18.30993194 0.05984777 22.28971569 0.07710752 26.26953125 0.09765625 C26.26953125 0.75765625 26.26953125 1.41765625 26.26953125 2.09765625 C27.91953125 2.09765625 29.56953125 2.09765625 31.26953125 2.09765625 C31.26953125 3.08765625 31.26953125 4.07765625 31.26953125 5.09765625 C32.91953125 5.09765625 34.56953125 5.09765625 36.26953125 5.09765625 C36.26953125 5.42765625 36.26953125 5.75765625 36.26953125 6.09765625 C17.78953125 6.09765625 -0.69046875 6.09765625 -19.73046875 6.09765625 C-19.73046875 5.76765625 -19.73046875 5.43765625 -19.73046875 5.09765625 C-13.79046875 4.60265625 -13.79046875 4.60265625 -7.73046875 4.09765625 C-7.73046875 3.43765625 -7.73046875 2.77765625 -7.73046875 2.09765625 C-8.72046875 1.76765625 -9.71046875 1.43765625 -10.73046875 1.09765625 C-7.09813773 -0.11312076 -3.77924888 -0.02678539 0 0 Z " fill="#F5C3B6" transform="translate(31.73046875,-0.09765625)"/>
<path d="M0 0 C18.48 0 36.96 0 56 0 C52 18 52 18 51 20 C47.37 20 43.74 20 40 20 C44 18 44 18 47 18 C47.18175781 16.91332031 47.18175781 16.91332031 47.3671875 15.8046875 C47.53476562 14.83789062 47.70234375 13.87109375 47.875 12.875 C48.03742187 11.92367188 48.19984375 10.97234375 48.3671875 9.9921875 C49 7 49 7 51 1 C34.17 1 17.34 1 0 1 C0 0.67 0 0.34 0 0 Z " fill="#E2471E" transform="translate(12,6)"/>
<path d="M0 0 C7.92 0 15.84 0 24 0 C23.67 0.99 23.34 1.98 23 3 C20.20251159 3.93249614 18.45679119 4.13476152 15.5625 4.125 C14.41974609 4.12886719 14.41974609 4.12886719 13.25390625 4.1328125 C11.04684141 4.00276015 9.12030724 3.60856199 7 3 C7 2.34 7 1.68 7 1 C4.69 1 2.38 1 0 1 C0 0.67 0 0.34 0 0 Z " fill="#E34920" transform="translate(25,17)"/>
<path d="M0 0 C0.70189453 0.00451172 1.40378906 0.00902344 2.12695312 0.01367188 C3.85550538 0.02543073 5.58401365 0.04336546 7.3125 0.0625 C6.3225 0.3925 5.3325 0.7225 4.3125 1.0625 C3.57926204 3.07758358 3.57926204 3.07758358 3.3125 5.0625 C1.85426788 5.0895043 0.39589325 5.10889787 -1.0625 5.125 C-1.87460937 5.13660156 -2.68671875 5.14820313 -3.5234375 5.16015625 C-5.6875 5.0625 -5.6875 5.0625 -7.6875 4.0625 C-7.6875 3.4025 -7.6875 2.7425 -7.6875 2.0625 C-8.6775 1.7325 -9.6675 1.4025 -10.6875 1.0625 C-7.06882441 -0.1437252 -3.76243749 -0.04566918 0 0 Z " fill="#979797" transform="translate(31.6875,-0.0625)"/>
<path d="M0 0 C3.96 0 7.92 0 12 0 C12 1.32 12 2.64 12 4 C10.14375 3.7215625 10.14375 3.7215625 8.25 3.4375 C5.23720423 3.05288777 2.89989173 2.9125406 0 4 C0 2.68 0 1.36 0 0 Z " fill="#222222" transform="translate(41,0)"/>
<path d="M0 0 C2.31 0 4.62 0 7 0 C7 0.66 7 1.32 7 2 C8.32 2.33 9.64 2.66 11 3 C9.68 3 8.36 3 7 3 C7 3.66 7 4.32 7 5 C5.02 5 3.04 5 1 5 C0.67 3.35 0.34 1.7 0 0 Z " fill="#E9D1CA" transform="translate(25,18)"/>
<path d="M0 0 C7.32705857 -0.29308234 12.35988374 0.67994187 19 4 C13.72 3.67 8.44 3.34 3 3 C3 2.34 3 1.68 3 1 C2.01 0.67 1.02 0.34 0 0 Z " fill="#ED7245" transform="translate(37,23)"/>
<path d="M0 0 C1.98 0 3.96 0 6 0 C6.33 1.65 6.66 3.3 7 5 C5.02 5 3.04 5 1 5 C1 4.34 1 3.68 1 3 C0.34 2.67 -0.32 2.34 -1 2 C-0.67 1.34 -0.34 0.68 0 0 Z " fill="#EAEAE9" transform="translate(24,11)"/>
<path d="M0 0 C2.97 0 5.94 0 9 0 C8.67 0.99 8.34 1.98 8 3 C2.25 4.125 2.25 4.125 0 3 C0 2.01 0 1.02 0 0 Z " fill="#F16A30" transform="translate(40,17)"/>
<path d="M0 0 C0.33 0.66 0.66 1.32 1 2 C-3.62 2.33 -8.24 2.66 -13 3 C-11.68 2.67 -10.36 2.34 -9 2 C-9 1.34 -9 0.68 -9 0 C-3.375 -1.125 -3.375 -1.125 0 0 Z " fill="#E55A36" transform="translate(37,24)"/>
<path d="M0 0 C1.32 0 2.64 0 4 0 C4 0.66 4 1.32 4 2 C5.65 2 7.3 2 9 2 C9 2.66 9 3.32 9 4 C6.03 4 3.06 4 0 4 C0 2.68 0 1.36 0 0 Z " fill="#343434" transform="translate(54,0)"/>
<path d="M0 0 C0 1.32 0 2.64 0 4 C0.66 4.33 1.32 4.66 2 5 C-0.64 5 -3.28 5 -6 5 C-5.6875 3.0625 -5.6875 3.0625 -5 1 C-2 0 -2 0 0 0 Z " fill="#EAEAEA" transform="translate(41,0)"/>
<path d="M0 0 C3.3 0 6.6 0 10 0 C9.01 0.33 8.02 0.66 7 1 C7 1.99 7 2.98 7 4 C5.68 4 4.36 4 3 4 C3 3.01 3 2.02 3 1 C2.01 0.67 1.02 0.34 0 0 Z " fill="#0E0E0E" transform="translate(29,0)"/>
</svg>
