<?xml version="1.0" encoding="UTF-8"?>
<svg version="1.1" xmlns="http://www.w3.org/2000/svg" width="100" height="28">
<path d="M0 0 C33 0 66 0 100 0 C100 9.24 100 18.48 100 28 C67 28 34 28 0 28 C0 18.76 0 9.52 0 0 Z " fill="#009FE4" transform="translate(0,0)"/>
<path d="M0 0 C33 0 66 0 100 0 C100 9.24 100 18.48 100 28 C67 28 34 28 0 28 C0 18.76 0 9.52 0 0 Z M3 1 C3 9.25 3 17.5 3 26 C34.35 26 65.7 26 98 26 C98 17.75 98 9.5 98 1 C66.65 1 35.3 1 3 1 Z " fill="#000507" transform="translate(0,0)"/>
<path d="M0 0 C1.32 0 2.64 0 4 0 C4.33 1.65 4.66 3.3 5 5 C5.4125 4.175 5.825 3.35 6.25 2.5 C6.8275 1.675 7.405 0.85 8 0 C9.32 0 10.64 0 12 0 C12 0.66 12 1.32 12 2 C12.99 2 13.98 2 15 2 C15 1.34 15 0.68 15 0 C15.66 0 16.32 0 17 0 C16.67 2.31 16.34 4.62 16 7 C17.98 7 19.96 7 22 7 C22 7.99 22 8.98 22 10 C17.05 10 12.1 10 7 10 C6.67 9.34 6.34 8.68 6 8 C4.68 8.33 3.36 8.66 2 9 C1.67 8.34 1.34 7.68 1 7 C0.67 7.66 0.34 8.32 0 9 C-0.66 9 -1.32 9 -2 9 C-1.125 2.25 -1.125 2.25 0 0 Z " fill="#0085C0" transform="translate(45,8)"/>
<path d="M0 0 C1.32 0 2.64 0 4 0 C4.33 1.65 4.66 3.3 5 5 C5.99 3.35 6.98 1.7 8 0 C9.32 0.33 10.64 0.66 12 1 C11.34 3.64 10.68 6.28 10 9 C9.34 9 8.68 9 8 9 C8 7.68 8 6.36 8 5 C7.3503125 5.99 7.3503125 5.99 6.6875 7 C6.130625 7.66 5.57375 8.32 5 9 C4.01 9 3.02 9 2 9 C1.67 8.34 1.34 7.68 1 7 C0.67 7.66 0.34 8.32 0 9 C-0.66 9 -1.32 9 -2 9 C-1.125 2.25 -1.125 2.25 0 0 Z " fill="#000F12" transform="translate(45,8)"/>
<path d="M0 0 C0.66 0 1.32 0 2 0 C2 1.32 2 2.64 2 4 C3.65 4 5.3 4 7 4 C7 2.68 7 1.36 7 0 C7.99 0 8.98 0 10 0 C9.34 2.97 8.68 5.94 8 9 C7.01 8.67 6.02 8.34 5 8 C5.33 7.01 5.66 6.02 6 5 C4.35 5 2.7 5 1 5 C0.67 6.32 0.34 7.64 0 9 C-0.66 9 -1.32 9 -2 9 C-1.125 1.125 -1.125 1.125 0 0 Z " fill="#001116" transform="translate(21,8)"/>
<path d="M0 0 C2.31 0 4.62 0 7 0 C7 0.66 7 1.32 7 2 C6.01 2.495 6.01 2.495 5 3 C5.185625 3.804375 5.37125 4.60875 5.5625 5.4375 C5.706875 6.283125 5.85125 7.12875 6 8 C5 9 5 9 1.9375 9.0625 C0.968125 9.041875 -0.00125 9.02125 -1 9 C-1.33 8.01 -1.66 7.02 -2 6 C0.475 6.495 0.475 6.495 3 7 C3.33 6.34 3.66 5.68 4 5 C2.35 5 0.7 5 -1 5 C-0.67 3.35 -0.34 1.7 0 0 Z " fill="#00121B" transform="translate(76,8)"/>
<path d="M0 0 C3.3 0 6.6 0 10 0 C10 0.66 10 1.32 10 2 C9.38125 2.04125 8.7625 2.0825 8.125 2.125 C7.42375 2.41375 6.7225 2.7025 6 3 C4.6954344 5.99615946 4.6954344 5.99615946 4 9 C3.34 9 2.68 9 2 9 C2.33 6.69 2.66 4.38 3 2 C2.01 2 1.02 2 0 2 C0 1.34 0 0.68 0 0 Z " fill="#001016" transform="translate(33,8)"/>
<path d="M0 0 C0.66 0 1.32 0 2 0 C1.67 2.31 1.34 4.62 1 7 C2.98 7 4.96 7 7 7 C7 7.66 7 8.32 7 9 C4.03 9 1.06 9 -2 9 C-1.125 2.25 -1.125 2.25 0 0 Z " fill="#001924" transform="translate(60,8)"/>
<path d="M0 0 C1.32 0.33 2.64 0.66 4 1 C3.34 3.64 2.68 6.28 2 9 C1.34 9 0.68 9 0 9 C-0.144375 8.38125 -0.28875 7.7625 -0.4375 7.125 C-0.93152225 4.96741678 -0.93152225 4.96741678 -2 3 C-1.34 2.01 -0.68 1.02 0 0 Z " fill="#00080C" transform="translate(53,8)"/>
<path d="M0 0 C0.33 1.32 0.66 2.64 1 4 C2.32 3.34 3.64 2.68 5 2 C4.67 3.32 4.34 4.64 4 6 C2.68 6.33 1.36 6.66 0 7 C-0.38133299 5.0085944 -0.71325582 3.00720923 -1 1 C-0.67 0.67 -0.34 0.34 0 0 Z " fill="#001E21" transform="translate(47,10)"/>
</svg>
