<?xml version="1.0" encoding="UTF-8"?>
<svg version="1.1" viewBox="0 0 2048 1000" width="1280" height="1280" xmlns="http://www.w3.org/2000/svg">
<path transform="translate(0)" d="m0 0h2048v1e3h-2048z" fill="#FDFDFD"/>
<path transform="translate(2047,171)" d="m0 0h1v39l-1 2-9 86-6 65-7 80-13 145-6 67-9 100-3 29-2 7-16 5-127 35-62 17-35 10-7 1-17-4-61-17-64-18-44-12-35-10-23-7-3-4-2-19-3-34-6-63-4-45-5-55-4-46-5-55-4-48-13-145-4-46-5-55v-4z" fill="#E85B2E"/>
<path transform="translate(1556,298)" d="m0 0h378l1 1v19l-5 52-1 3-3 1-241 1h-46l1 2 3 36 2 38h135l141 1 1 1v11l-7 82-9 98-4 35-2 6-11 4-52 15-62 17-24 7h-9l-41-11-46-13-48-13-16-6-2-5-3-26-6-75v-13h71l6 2 2 14 3 37 2 6 36 12 37 11 8 1 16-4 33-9 21-6 13-3 2-10 6-62 2-26-259-1-3-4-4-34-7-70-9-97-1-24z" fill="#FDFDFD"/>
<path transform="translate(705,353)" d="m0 0h114l4 5 10 18 17 28 11 18 8 13 12 19 6 8 4 3 8-14 13-22 11-17 12-20 14-23 6-10 4-5 3-1h109v326h-106v-157l-4 1-8 10-8 14-13 20-12 18-13 20-11 18-6 9-5-3-7-10-10-15-10-16-13-20-15-23-11-18-4-6-3-3v161h-107z" fill="#010000"/>
<path transform="translate(17,352)" d="m0 0h81v105l1 4h74l25-1 1-107h109l-1 265-1 61h-108v-109l-101-1v110l-1 1h-32l-64-1v-326z" fill="#010000"/>
<path transform="translate(406,352)" d="m0 0h189l62 1-1 108h-28l-68-1-1 219-1 1-106-1v-218l-97-1v-107z"/>
<path transform="translate(1128,353)" d="m0 0h108v199l1 16 2 3h150l1 2v105l-1 1-77 1h-159l-25-1z" fill="#020100"/>
</svg>
