<?xml version="1.0" encoding="UTF-8"?>
<!DOCTYPE svg PUBLIC "-//W3C//DTD SVG 1.1//EN" "http://www.w3.org/Graphics/SVG/1.1/DTD/svg11.dtd">
<svg xmlns="http://www.w3.org/2000/svg" version="1.1" width="130px" height="28px" style="shape-rendering:geometricPrecision; text-rendering:geometricPrecision; image-rendering:optimizeQuality; fill-rule:evenodd; clip-rule:evenodd" xmlns:xlink="http://www.w3.org/1999/xlink">
<g><path style="opacity:1" fill="#6607e4" d="M -0.5,-0.5 C 42.8333,-0.5 86.1667,-0.5 129.5,-0.5C 129.5,8.83333 129.5,18.1667 129.5,27.5C 86.1667,27.5 42.8333,27.5 -0.5,27.5C -0.5,18.1667 -0.5,8.83333 -0.5,-0.5 Z"/></g>
<g><path style="opacity:1" fill="#eeedfc" d="M 46.5,8.5 C 49.8078,7.97383 51.9745,9.30716 53,12.5C 53.687,9.57442 55.5203,8.24109 58.5,8.5C 58.8134,11.2469 58.48,13.9135 57.5,16.5C 55.678,12.8979 54.678,12.8979 54.5,16.5C 51.6118,16.7804 50.1118,15.4471 50,12.5C 49.51,13.7932 49.3433,15.1266 49.5,16.5C 48.5,16.5 47.5,16.5 46.5,16.5C 46.5,13.8333 46.5,11.1667 46.5,8.5 Z"/></g>
<g><path style="opacity:1" fill="#fcfdfd" d="M 92.5,8.5 C 94.3435,10.2789 95.0102,12.6122 94.5,15.5C 96.5273,15.3379 98.5273,15.5045 100.5,16C 97.854,16.4974 95.1873,16.6641 92.5,16.5C 92.5,13.8333 92.5,11.1667 92.5,8.5 Z"/></g>
<g><path style="opacity:1" fill="#e6d3fa" d="M 37.5,15.5 C 33.4862,15.3345 29.4862,15.5012 25.5,16C 29.6877,16.1762 33.6877,16.6762 37.5,17.5C 33.8878,18.5114 30.2211,18.6781 26.5,18C 25.4844,17.4806 24.8178,16.6473 24.5,15.5C 25.1984,14.1374 25.1984,12.9707 24.5,12C 25.1667,11.6667 25.8333,11.3333 26.5,11C 25.0439,10.5774 24.5439,9.74409 25,8.5C 29,7.16667 33,7.16667 37,8.5C 37.4561,9.74409 36.9561,10.5774 35.5,11C 38.5443,11.3589 38.8776,12.0255 36.5,13C 38.6192,13.3418 38.9526,14.1751 37.5,15.5 Z"/></g>
<g><path style="opacity:1" fill="#f5f1fc" d="M 82.5,8.5 C 90.0565,8.05127 92.3898,11.0513 89.5,17.5C 86.0712,17.0932 82.9046,16.0932 80,14.5C 79.0339,11.6603 79.8672,9.66027 82.5,8.5 Z"/></g>
<g><path style="opacity:1" fill="#7327e6" d="M 82.5,10.5 C 84.9775,10.0508 86.9775,10.7175 88.5,12.5C 87.0295,13.4167 85.5295,14.4167 84,15.5C 81.676,14.2247 81.176,12.558 82.5,10.5 Z"/></g>
<g><path style="opacity:1" fill="#eae1fb" d="M 59.5,10.5 C 61.6237,11.0312 63.1237,12.3645 64,14.5C 64.3095,13.2341 64.8095,12.0674 65.5,11C 66.3317,10.3123 66.9984,10.479 67.5,11.5C 66.5428,13.9176 65.2095,16.0843 63.5,18C 62.1667,18.6667 60.8333,18.6667 59.5,18C 60.428,17.6121 61.0946,16.9454 61.5,16C 60.6805,14.1997 60.0138,12.3664 59.5,10.5 Z"/></g>
<g><path style="opacity:1" fill="#b27cef" d="M 37.5,15.5 C 38.8333,16.1667 38.8333,16.8333 37.5,17.5C 33.6877,16.6762 29.6877,16.1762 25.5,16C 29.4862,15.5012 33.4862,15.3345 37.5,15.5 Z"/></g>
<g><path style="opacity:1" fill="#f4f1fd" d="M 70.5,8.5 C 72.5914,8.31845 74.5914,8.65178 76.5,9.5C 77.8333,10.1667 77.8333,10.8333 76.5,11.5C 74.9017,10.5153 73.235,10.3486 71.5,11C 73.4357,11.813 75.4357,12.313 77.5,12.5C 77.67,13.8221 77.3366,14.9887 76.5,16C 74.0982,16.8141 71.7649,16.6474 69.5,15.5C 71.5653,15.7384 73.5653,15.2384 75.5,14C 73.7818,13.654 72.1151,13.154 70.5,12.5C 69.3744,11.1916 69.3744,9.85832 70.5,8.5 Z"/></g>
</svg>
