<?xml version="1.0" encoding="UTF-8"?>
<!DOCTYPE svg PUBLIC "-//W3C//DTD SVG 1.1//EN" "http://www.w3.org/Graphics/SVG/1.1/DTD/svg11.dtd">
<svg xmlns="http://www.w3.org/2000/svg" version="1.1" width="140px" height="28px" style="shape-rendering:geometricPrecision; text-rendering:geometricPrecision; image-rendering:optimizeQuality; fill-rule:evenodd; clip-rule:evenodd" xmlns:xlink="http://www.w3.org/1999/xlink">
<g><path style="opacity:1" fill="#3a4458" d="M -0.5,-0.5 C 45.5,-0.5 91.5,-0.5 137.5,-0.5C 137.5,8.83333 137.5,18.1667 137.5,27.5C 91.5,27.5 45.5,27.5 -0.5,27.5C -0.5,18.1667 -0.5,8.83333 -0.5,-0.5 Z"/></g>
<g><path style="opacity:1" fill="#0c0f12" d="M 137.5,-0.5 C 138.167,-0.5 138.833,-0.5 139.5,-0.5C 139.5,8.83333 139.5,18.1667 139.5,27.5C 138.833,27.5 138.167,27.5 137.5,27.5C 137.5,18.1667 137.5,8.83333 137.5,-0.5 Z"/></g>
<g><path style="opacity:1" fill="#f9faf9" d="M 27.5,9.5 C 23.8333,9.5 20.1667,9.5 16.5,9.5C 14.3484,8.92315 14.015,7.75649 15.5,6C 19.1667,5.33333 22.8333,5.33333 26.5,6C 27.3366,7.01127 27.67,8.17793 27.5,9.5 Z"/></g>
<g><path style="opacity:1" fill="#e6e4e0" d="M 35.5,6.5 C 38.2492,6.27391 40.9159,6.60724 43.5,7.5C 45.1765,12.0898 43.5098,14.0898 38.5,13.5C 38.5,14.8333 38.5,16.1667 38.5,17.5C 37.5,17.5 36.5,17.5 35.5,17.5C 35.5,13.8333 35.5,10.1667 35.5,6.5 Z"/></g>
<g><path style="opacity:1" fill="#ebeeec" d="M 63.5,7.5 C 67.387,8.65663 68.0536,10.6566 65.5,13.5C 65.9186,14.6721 66.5853,15.6721 67.5,16.5C 66.3493,17.731 65.1827,17.731 64,16.5C 63.1222,13.3556 62.9555,10.3556 63.5,7.5 Z"/></g>
<g><path style="opacity:1" fill="#e4e9eb" d="M 113.5,6.5 C 114.5,6.5 115.5,6.5 116.5,6.5C 116.5,9.5 116.5,12.5 116.5,15.5C 118.288,15.2148 119.955,15.5481 121.5,16.5C 118.914,17.48 116.247,17.8134 113.5,17.5C 113.5,13.8333 113.5,10.1667 113.5,6.5 Z"/></g>
<g><path style="opacity:1" fill="#a7adb4" d="M 16.5,9.5 C 20.1667,9.5 23.8333,9.5 27.5,9.5C 27.5,9.83333 27.5,10.1667 27.5,10.5C 23.6992,11.7146 20.0326,11.7146 16.5,10.5C 16.5,10.1667 16.5,9.83333 16.5,9.5 Z"/></g>
<g><path style="opacity:1" fill="#3b425a" d="M 38.5,8.5 C 39.675,8.28099 40.675,8.61432 41.5,9.5C 39.9483,10.7979 38.9483,10.4646 38.5,8.5 Z"/></g>
<g><path style="opacity:1" fill="#eef2f2" d="M 72.5,16.5 C 71.4583,17.7911 70.2917,17.7911 69,16.5C 68.3333,14.5 68.3333,12.5 69,10.5C 70.8886,9.9026 72.7219,9.56927 74.5,9.5C 75.657,12.7844 75.8236,16.1177 75,19.5C 72.7079,20.9078 70.5412,20.7411 68.5,19C 70.2556,18.7978 71.9223,18.2978 73.5,17.5C 73.3764,16.8933 73.0431,16.56 72.5,16.5 Z"/></g>
<g><path style="opacity:1" fill="#ebeeeb" d="M 47.5,9.5 C 53.4877,9.66395 54.821,12.164 51.5,17C 48.402,18.0673 46.402,17.0673 45.5,14C 45.5186,12.167 46.1852,10.667 47.5,9.5 Z"/></g>
<g><path style="opacity:1" fill="#e8ecec" d="M 55.5,9.5 C 57.7505,9.18136 59.7505,9.68136 61.5,11C 60.1667,11.3333 58.8333,11.6667 57.5,12C 60.7055,12.6247 61.7055,14.2914 60.5,17C 58.272,17.8201 56.272,17.4868 54.5,16C 55.8333,15.6667 57.1667,15.3333 58.5,15C 55.095,14.2473 54.095,12.414 55.5,9.5 Z"/></g>
<g><path style="opacity:1" fill="#f1f1ef" d="M 16.5,10.5 C 20.0326,11.7146 23.6992,11.7146 27.5,10.5C 27.5,11.1667 27.5,11.8333 27.5,12.5C 23.8013,13.5792 20.1346,13.5792 16.5,12.5C 13.8333,11.8333 13.8333,11.1667 16.5,10.5 Z"/></g>
<g><path style="opacity:1" fill="#dee5e6" d="M 84.5,9.5 C 87.9496,8.75635 89.6162,10.0897 89.5,13.5C 84.203,14.0325 84.203,14.8658 89.5,16C 86.0349,18.3829 83.7016,17.5496 82.5,13.5C 82.7517,11.9271 83.4183,10.5938 84.5,9.5 Z"/></g>
<g><path style="opacity:1" fill="#3e3b50" d="M 48.5,11.5 C 49.5862,11.62 50.2528,12.2867 50.5,13.5C 49.6964,15.9573 48.6964,15.9573 47.5,13.5C 47.8627,12.8165 48.1961,12.1499 48.5,11.5 Z"/></g>
<g><path style="opacity:1" fill="#4a4564" d="M 72.5,16.5 C 70.439,15.2486 70.1057,13.5819 71.5,11.5C 73.7542,12.714 74.0875,14.3806 72.5,16.5 Z"/></g>
<g><path style="opacity:1" fill="#f2fcf9" d="M 77.5,9.5 C 79.1992,9.33982 80.8659,9.50649 82.5,10C 81.5838,10.3742 80.7504,10.8742 80,11.5C 79.8078,13.5767 79.3078,15.5767 78.5,17.5C 77.52,14.9135 77.1866,12.2469 77.5,9.5 Z"/></g>
<g><path style="opacity:1" fill="#eae7e3" d="M 104.5,6.5 C 107.652,5.95855 110.152,6.95855 112,9.5C 111.869,12.095 112.036,14.595 112.5,17C 112,17.5 111.5,18 111,18.5C 107.861,17.9211 104.861,16.9211 102,15.5C 100.779,11.7179 101.613,8.71794 104.5,6.5 Z"/></g>
<g><path style="opacity:1" fill="#3c455d" d="M 105.5,8.5 C 108.484,8.78684 109.817,10.4535 109.5,13.5C 107.876,13.3601 106.71,14.0267 106,15.5C 104.193,13.294 104.026,10.9606 105.5,8.5 Z"/></g>
<g><path style="opacity:1" fill="#8f97a1" d="M 16.5,12.5 C 20.1346,13.5792 23.8013,13.5792 27.5,12.5C 27.5,12.8333 27.5,13.1667 27.5,13.5C 23.6992,14.7146 20.0326,14.7146 16.5,13.5C 16.5,13.1667 16.5,12.8333 16.5,12.5 Z"/></g>
<g><path style="opacity:1" fill="#f3f4f4" d="M 16.5,13.5 C 20.0326,14.7146 23.6992,14.7146 27.5,13.5C 23.6042,16.9698 19.2709,17.3031 14.5,14.5C 14.9569,13.7025 15.6236,13.3691 16.5,13.5 Z"/></g>
<g><path style="opacity:1" fill="#e9e9e4" d="M 97.5,10.5 C 100.313,11.743 100.979,13.743 99.5,16.5C 96.1611,18.2348 93.4944,17.5682 91.5,14.5C 91.8333,14.1667 92.1667,13.8333 92.5,13.5C 93.9684,15.3329 95.6351,15.6662 97.5,14.5C 95.6136,13.5937 93.7803,12.5937 92,11.5C 91.8355,7.0233 94.0022,5.5233 98.5,7C 101.259,9.48365 100.926,10.6503 97.5,10.5 Z"/></g>
<g><path style="opacity:1" fill="#3f425d" d="M 97.5,10.5 C 96.325,10.719 95.325,10.3857 94.5,9.5C 95.8595,8.33469 96.8595,8.66803 97.5,10.5 Z"/></g>
<g><path style="opacity:1" fill="#ebeceb" d="M 14.5,16.5 C 18.9478,17.4574 23.2812,17.7907 27.5,17.5C 27.2907,18.086 26.9574,18.586 26.5,19C 22.8333,19.6667 19.1667,19.6667 15.5,19C 14.7476,18.3292 14.4142,17.4959 14.5,16.5 Z"/></g>
</svg>
