<?xml version="1.0" encoding="UTF-8"?>
<svg version="1.1" viewBox="0 0 2048 1146" width="1280" height="1280" xmlns="http://www.w3.org/2000/svg">
<path transform="translate(0)" d="m0 0h2048v1146h-2048z" fill="#FEFEFE"/>
<path transform="translate(647,347)" d="m0 0h39l20 4 15 5 16 8 13 8 10 8 10 10 8 13 4 13 1 9v13l-3 26-5 23-6 22-9 26-11 26-14 29-12 21 2-1 20-2 13-2 15-1 7 3 4 5 1 3v10l-4 10-10 13-8 7-14 7-13 4-12 2-31 1-4 42-4 27-4 15-8 16-7 8-10 7-11 5-21 6-17 2-16-2-16-7-9-7-7-9-5-12-3-15-3-39-1-20-1-5-9 2-6 2-14 1-20-3-19-4-6-5-3-3-5 2-10 6-6 2-9 1-9-3-8-6-8-7-11-15-10-18-10-23-12-34-9-30-9-38-5-26-1-9v-33l2-17 5-17 8-16 9-11 7-7 14-9 11-5 15-4 18-2h15l22 2 29 5 13 4 4 1 6-5 19-6 18-2h17l27 2 18-3 15-3z" fill="#FDFDFD"/>
<path transform="translate(565,377)" d="m0 0h18l21 3 15 5 16 8 12 8 14 12 9 9 13 18 10 19 1 4-6 2-14 1-15 4-8 6-5 6-3 6-1 5v15l4 17 6 17 8 16 15 29 11 18 5 6-12 11-3 6-6 48-6 49-5 20-5 10-8 8-13 7-11 3-7 1h-12l-9-3-10-9-5-7-4-11-2-12-1-15-1-82-3-9-5-6-10-5-7-3-1-3 11-28 6-16 3-14v-36l-3-17-4-11-6-10-8-6-5-2-8-1h-10l-16 3-15 6h-2l1-13 5-21 7-20 9-15 8-10 11-9 16-8 12-3z" fill="#2F649D"/>
<path transform="translate(435,379)" d="m0 0h21l27 3 22 5 4 2-3 5-11 15-9 17-6 19-3 14-2 20-1 55-1 18v13l3 16 4 9 7 12 5 6-1 5-7 9-10 11-7 8-11 12-7 4h-8l-9-6-9-11-8-13-11-26-12-35-11-42-6-27-2-13-1-13v-22l2-16 3-12 9-17 9-10 14-9 11-4z" fill="#2F649D"/>
<path transform="translate(647,347)" d="m0 0h39l20 4 15 5 16 8 13 8 10 8 10 10 8 13 4 13 1 9v13l-3 26-5 23-6 22-9 26-11 26-14 29-12 21 2-1 20-2 13-2 15-1 7 3 4 5 1 3v10l-4 10-10 13-8 7-14 7-13 4-12 2-31 1-4 42-4 27-4 15-8 16-7 8-10 7-11 5-21 6-17 2-16-2-16-7-9-7-7-9-5-12-3-15-3-39-1-20-1-5-9 2-6 2-14 1-20-3-19-4-6-5-3-3-5 2-10 6-6 2-9 1-9-3-8-6-8-7-11-15-10-18-10-23-12-34-9-30-9-38-5-26-1-9v-33l2-17 5-17 8-16 9-11 7-7 14-9 11-5 15-4 18-2h15l22 2 29 5 13 4 4 1 6-5 19-6 18-2h17l27 2 18-3 15-3zm2 13-20 2-13 3-5 2-23-2h-30l-17 4-16 8-6 1-5-3-28-6-21-3-23-1-18 2-16 4-11 5-9 6-9 8-7 10-7 15-4 14-2 15v34l5 30 7 31 7 26 6 20 9 25 8 18 10 18 10 13 9 8 9 4 5 1 10-2 8-4 7-6 7-8 9-10 9-11 9-10 6-2 14 5 6 1-5 8-12 6-18 4-10 5-6 7v6l7 8 4 3 13 4 7 1h17l16-4 11-6 6-3v45l2 28 4 18 4 10 7 9 9 7 12 5 7 1h9l14-2 18-6 11-7 8-8 8-16 4-17 5-35 4-37h29l19-3 16-6 11-7 10-9 3-7v-9l-4-3-8-1-28 3h-17l-4-1 1-6 13-23 11-21 12-28 9-25 7-26 5-26 1-9v-26l-2-11-6-12-8-10-11-9-10-7-16-8-18-6-18-3z" fill="#11192F"/>
<path transform="translate(1512,496)" d="m0 0h21l13 3 12 6 10 9 7 11 4 11 2 14v14l-3 16-6 12-8 10-10 8-11 5-8 2h-21l-15-4-11-6-8-7-7-11-5-12-2-14v-18l3-14 6-12 11-12 14-8z" fill="#FEFEFE"/>
<path transform="translate(646,373)" d="m0 0h27l17 2 15 4 19 9 14 10 12 12 7 14 1 5v17l-3 22-7 30-9 27-11 26-8 17-10 19-4 5-2-5 3-8v-31l-1-14v-28l2-15v-25l-5-15-9-17-9-13-12-14-11-10-11-8-13-8-7-5 4-2z" fill="#2F649D"/>
<path transform="translate(525,479)" d="m0 0h7l7 3 6 5 6 18 2 13v31l-3 15-6 16-13 31-2 1-9-2-12-6-12-11-6-9-4-12v-24l1-11 1-45 5-3 11-5 14-4z" fill="#2F649D"/>
<path transform="translate(1511,487)" d="m0 0h26l16 4 11 6 10 9 6 7 8 16 3 12v31l-4 15-7 12-9 11 14 12 3 4 1 5-6 2-11-8-7-6-4-1-17 6-10 2h-20l-16-4-10-4-9-6-8-7-7-10-5-10-3-11-2-13v-11l2-14 6-16 6-10 6-7 11-8 8-4zm1 9-12 3-11 6-10 9-7 10-4 10-2 11v18l2 14 5 12 7 11 11 9 11 5 12 3h21l13-4 10-6 9-8 9-14 4-13 1-8v-14l-2-14-5-13-8-11-8-7-12-6-13-3z" fill="#2F649D"/>
<path transform="translate(1381,487)" d="m0 0h26l16 4 10 6 6 7 6 13 2 7-2 3h-8l-4-6-3-10-6-7-10-5-9-2h-24l-11 3-9 6-4 8-1 8 3 12 5 6 11 4 36 8 22 6 8 6 5 7 3 10v17l-3 8-8 9-8 5-11 4-10 2h-21l-15-3-11-4-10-7-6-8-4-10-2-12 3-2h7l3 4 2 9 6 11 5 5 8 4 14 3h23l12-4 9-7 3-5 1-4v-17l-3-6-9-6-28-7-27-6-10-4-9-7-4-8-1-4v-18l4-10 8-8 10-5z" fill="#2E639C"/>
<path transform="translate(1279,542)" d="m0 0h14l12 3 8 5 7 8 4 9 1 5v9l-2 1h-58l-8-1 2 12 6 12 12 6 4 1h14l9-4 5-5 8-10 6-1 1 5-7 10-8 7-13 5-11 1-13-3-11-6-7-8-5-10-1-4v-18l4-11 6-8 8-6 7-3z" fill="#121D34"/>
<path transform="translate(946,548)" d="m0 0h8l10 3 6 4 6 7 4 9 1 9-2 13-5 9-8 7-11 4h-11l-9-3-9-8-4-7-2-11v-9l2-9 5-8 7-6 7-3z" fill="#FEFEFE"/>
<path transform="translate(675,478)" d="m0 0h18l2 2v13l-2 20v15l2 23v24l-1 9h-4l-9-13-13-24-8-19-5-17v-19l3-7 9-5z" fill="#2F649D"/>
<path transform="translate(833,514)" d="m0 0h42l12 2 6 5 4 10v13l-3 9-6 5-5 2-6 1h-44l-1-2v-44z" fill="#FEFEFE"/>
<path transform="translate(1148,548)" d="m0 0h9l9 3 10 7 4 6 2 7v20l-4 7-8 6-7 3-5 1h-13l-11-4-7-8-3-7-1-12 3-12 6-8 6-5z" fill="#FEFEFE"/>
<path transform="translate(820,506)" d="m0 0h64l11 4 7 8 5 12v15l-3 8-6 8-5 4-10 3-11 1h-39l-1 45-4 3h-7l-1-38zm13 8-1 1v44l1 2h44l9-2 6-4 3-4 2-7v-13l-4-10-6-5-12-2z" fill="#11192E"/>
<path transform="translate(1143,542)" d="m0 0h18l10 3 5 4 5 5h1l1-9 7-1 1 2v66l-2 16-4 8-9 7-12 4-5 1h-14l-12-4-9-5-5-8v-9l4 2 12 13 6 2 7 1h10l12-3 6-4 3-4 2-7v-20l-5 5-9 6-8 2h-18l-10-4-8-7-5-7-3-10v-16l4-13 4-6 8-6 7-3zm5 6-10 4-8 7-5 8-2 10 1 12 5 10 7 6 9 3h13l10-3 6-4 5-4 3-6v-20l-3-9-5-6-12-7-5-1z" fill="#121B31"/>
<path transform="translate(1609,490)" d="m0 0 6 1 1 121 83 1 1 6-2 3-44 1h-49l-1-1v-131z" fill="#2F649D"/>
<path transform="translate(1022,542)" d="m0 0h20l10 3 7 6 5 8 1 7-4 1-5-4-5-8-7-5-8-2h-9l-9 2-6 4-2 4v10l3 3 12 3 31 5 6 4 5 10v8l-4 9-10 6-9 3-11 1-14-2-11-4-6-5-4-8v-8l5 1 5 6 5 7 7 4 14 2 13-2 7-4 3-5v-9l-5-5-16-4-25-4-6-4-4-5-1-2v-10l3-8 6-5 8-3z" fill="#111A31"/>
<path transform="translate(942,542)" d="m0 0h17l10 3 9 6 6 8 4 11v20l-3 10-6 8-7 6-15 5h-16l-11-4-6-4-8-9-4-10-1-6v-10l2-10 5-10 6-7 9-5zm4 6-10 3-6 4-6 7-3 7-1 6v9l2 11 6 9 7 6 9 3h11l11-4 9-8 4-8 2-14-2-11-5-9-8-7-7-3-5-1z" fill="#111A30"/>
<path transform="translate(1279,548)" d="m0 0h13l10 4 8 6 6 9 1 8-2 1h-58l1-8 6-10 8-7z" fill="#FEFEFE"/>
<path transform="translate(1092,519)" d="m0 0 4 2 1 22 1 1h12l3 3 1 3-2 2h-11l-5-1 1 46 2 10 7 4 4 3v4h-9l-9-4-3-5-2-14-1-42-10-2-2-1v-3l5-2 8-1v-10l1-13z" fill="#121B31"/>
<path transform="translate(548,627)" d="m0 0 6 1 4 4 1 9-4 6-7 7-10 6-10 3-8 1h-9l-10-2-4-3 1-3 10-3 13-4 10-6 5-5 9-10z" fill="#2F649D"/>
<path transform="translate(1240,542)" d="m0 0h5l2 2v6l-13 1-10 5-6 5-1 5-2 50-1 1h-6l-2-3v-70l4-1 5 5 2 5 5-5 4-3 6-2z" fill="#11192F"/>
<path transform="translate(692,627)" d="m0 0h8l14 3h35l-2 3 1 2-13 6-15 4-8 1h-15l-9-4-2-5 4-9z" fill="#2F649D"/>
<path transform="translate(524,486)" d="m0 0 11 1 6 4 2 3-1 5-7 4h-6l-8-6-2-3 1-6z" fill="#FEFEFE"/>
<path transform="translate(673,482)" d="m0 0 9 1 3 2v6l-8 5-7 1-5-3-1-1v-7z" fill="#FEFEFE"/>
</svg>
