<?xml version="1.0" encoding="UTF-8"?>
<svg version="1.1" xmlns="http://www.w3.org/2000/svg" width="100" height="28">
<path d="M0 0 C33 0 66 0 100 0 C100 9.24 100 18.48 100 28 C67 28 34 28 0 28 C0 18.76 0 9.52 0 0 Z " fill="#F9F9F9" transform="translate(0,0)"/>
<path d="M0 0 C1.79133978 -0.05391993 3.58313899 -0.09275571 5.375 -0.125 C6.37273438 -0.14820313 7.37046875 -0.17140625 8.3984375 -0.1953125 C11 0 11 0 13 2 C15.58354218 2.16687448 15.58354218 2.16687448 18 2 C17.67 2.99 17.34 3.98 17 5 C12.01970974 7.42629526 6.44773578 7.66626984 1 7 C0.34 6.34 -0.32 5.68 -1 5 C-3.57061311 4.35232207 -3.57061311 4.35232207 -6 4 C-6 3.34 -6 2.68 -6 2 C-4.02 2 -2.04 2 0 2 C0 1.34 0 0.68 0 0 Z " fill="#EFDD7B" transform="translate(8,10)"/>
<path d="M0 0 C3.63 0 7.26 0 11 0 C11.33 0.99 11.66 1.98 12 3 C11.19175781 3.06058594 10.38351563 3.12117187 9.55078125 3.18359375 C7.94783203 3.30927734 7.94783203 3.30927734 6.3125 3.4375 C5.25675781 3.51871094 4.20101563 3.59992187 3.11328125 3.68359375 C0.34913703 3.96451681 -2.28945741 4.40156852 -5 5 C-5.33 4.01 -5.66 3.02 -6 2 C-4.02 2 -2.04 2 0 2 C0 1.34 0 0.68 0 0 Z " fill="#4F89B7" transform="translate(8,10)"/>
<path d="M0 0 C-0.33 0.99 -0.66 1.98 -1 3 C-4.375 3.625 -4.375 3.625 -8 4 C-8.66 3.34 -9.32 2.68 -10 2 C-6.49223216 0.39644899 -3.85645121 -0.22036864 0 0 Z " fill="#FEDC50" transform="translate(26,12)"/>
<path d="M0 0 C3.625 -0.1875 3.625 -0.1875 7 0 C7.33 0.99 7.66 1.98 8 3 C4.7 3 1.4 3 -2 3 C-1.34 2.01 -0.68 1.02 0 0 Z " fill="#2B6BA2" transform="translate(12,10)"/>
<path d="M0 0 C2.64 0.33 5.28 0.66 8 1 C8.33 2.32 8.66 3.64 9 5 C8.34 4.34 7.68 3.68 7 3 C4.41645782 2.83312552 4.41645782 2.83312552 2 3 C2 3.66 2 4.32 2 5 C1.34 5 0.68 5 0 5 C0 3.35 0 1.7 0 0 Z " fill="#7D7D7D" transform="translate(65,10)"/>
<path d="M0 0 C1.65 0 3.3 0 5 0 C5.33 0.99 5.66 1.98 6 3 C3.69 3 1.38 3 -1 3 C-0.67 2.01 -0.34 1.02 0 0 Z " fill="#E5E5E5" transform="translate(79,11)"/>
</svg>
