<?xml version="1.0" encoding="UTF-8"?>
<svg version="1.1" viewBox="0 0 2048 1228" width="1280" height="1280" xmlns="http://www.w3.org/2000/svg">
<path transform="translate(0)" d="m0 0h2048v1228h-2048z" fill="#FFFDFD"/>
<path transform="translate(168,317)" d="m0 0h260l4 5 15 28 14 24 15 26 11 19 19 32 12 20 3 2 2-6 15-27 12-20 17-29 15-26 13-23 12-21 2-3 17-1h249l35 1-5 9-9 14-17 29-15 26-9 15-10 18-15 26-14 24-15 26-12 21-15 26-12 21-15 25-10 18-14 24-15 26-22 38-14 24-13 23-16 27-13 23-9 15-15 27-12 20-15 26-13 22-11 20-12 20-11 19-12 21h-2l-16-29-16-27-13-23-9-15-14-25-13-22-16-28-14-24-16-28-28-48-30-52-16-28-13-22-16-28-14-24-14-25-9-15-15-26-14-24-30-52-16-27-14-25-15-25-11-18-8-12v-1z" fill="#00BA84"/>
<path transform="translate(279,317)" d="m0 0h149l4 5 15 28 14 24 15 26 11 19 19 32 12 20 3 2 2-6 15-27 12-20 17-29 15-26 13-23 12-21 2-3 17-1h127v3l-6 9-17 29-15 26-13 22-16 28-14 24-16 28-15 26-14 24-15 26-13 23-6 10-15 26-14 24-15 26-10 17-13 21-7 11-3-1-11-21-30-51-30-52-32-56-11-19-16-28-15-26-14-24-16-28-13-23-16-27-14-24-10-15-5-6z" fill="#44546B"/>
<path transform="translate(1487,558)" d="m0 0h24l18 4 16 8 11 8 7 7 9 13 7 15 3 9 1 6v16l-3 12-6 8-6 5-11 3-107 1-1 1v15l3 15 6 12 9 10 9 6 10 4 16 3h19l15-3 18-8 9-5h7l6 7 2 4-1 9-7 8-13 8-13 5-18 4-10 1h-11l-17-2-17-4-19-9-12-9-7-6-9-13-7-15-3-13-1-8v-55l3-17 6-15 7-11 11-12 11-9 16-8 14-4z" fill="#26435D"/>
<path transform="translate(1156,447)" d="m0 0 11 2 10 6 3 4-3 15-19 61-17 56-22 72-18 59-10 32-5 8-6 4-6 2h-14l-8-5-4-5-5-12-12-38-10-33-20-64-15-49-14-46-16-52v-6l6-5 11-5h12l4 5 6 16 14 48 26 87 22 74 10 32 3 3 7-24 7-26 9-29 22-74 20-68 11-36 4-7z" fill="#26425D"/>
<path transform="translate(1212,560)" d="m0 0h7l10 4 3 5 1 115 2 15 5 12 6 9 7 7 10 6 9 3 5 1h15l12-4 10-6 5-4 7-10 5-10 2-9 1-17 1-110 5-4 8-3h10l8 4 3 4 1 24v87l-2 22-5 16-8 14-9 11-9 8-11 7-12 6-12 4-12 2h-13l-15-3-12-4-15-8-13-11-9-11-8-14-5-13-2-11v-119l1-9 3-3z" fill="#26435D"/>
<path transform="translate(1843,557)" d="m0 0h25l16 3 16 6 10 6 6 6-2 9-9 10-6-1-19-7-13-3h-22l-13 4-8 6-6 8-2 5v13l3 8 8 7 14 6 34 10 18 8 9 6 5 4 7 10 6 13 3 13v9l-3 13-7 13-9 10-10 7-14 6-14 3-10 1h-11l-22-3-15-4-16-8-10-9-4-8 1-6 8-11 7 2 18 11 9 4 13 3 18 1 15-2 11-4 7-6 4-8 1-3v-14l-6-10-8-7-12-6-27-9-20-7-11-6-9-7-6-8-5-10-2-10v-13l4-16 6-12 9-10 14-9 14-5z" fill="#26435D"/>
<path transform="translate(1715,560)" d="m0 0h11l8 4 3 4 1 168v49l-2 23-5 19-8 16-11 12-16 8-11 3h-11l-6-3-6-7-2-4 2-9 7-6 5-2 11-2 8-5 4-7 4-13 1-11 1-217 1-15z" fill="#27435D"/>
<path transform="translate(1488,585)" d="m0 0h22l10 3 11 6 9 9 7 12 3 10v17l-5 5-9 2h-86l-3-4v-16l3-12 6-12 8-9 11-7z" fill="#FFFDFD"/>
<path transform="translate(1633,724)" d="m0 0h10l8 4 6 8 2 5v11l-6 9-8 5-2 1h-11l-8-4-6-7-2-5v-12l3-6 7-6z" fill="#27435D"/>
<path transform="translate(1715,462)" d="m0 0h11l8 5 4 5 3 7-1 8-4 6-8 6-3 1h-11l-8-4-6-8-1-2v-11l6-8z" fill="#27435D"/>
<path transform="translate(989,455)" d="m0 0 2 2 8 26 19 64 20 67 19 64 10 32 3 5-4-2-4-8-8-25-6-22-8-27-9-30-11-38-5-15-7-24-12-42-7-24z" fill="#45556C"/>
<path transform="translate(427,319)" d="m0 0 4 1 12 23 3 5-1 4-7-11-8-14z" fill="#2E4761"/>
<path transform="translate(1234,699)" d="m0 0 2 3 8 16 9 9 6 4-2 1-9-6-5-5-6-10-3-8z" fill="#45556C"/>
<path transform="translate(1533,565)" d="m0 0 5 1 13 8 9 8h-3l-17-12-7-4z" fill="#45556C"/>
<path transform="translate(1e3 620)" d="m0 0 4 4 3 8v11l-2-3-5-16z" fill="#45556C"/>
<path transform="translate(1784,724)" d="m0 0 4 1-1 4h-2l-1 3-3 1 1-7z" fill="#45556C"/>
</svg>
